<?xml version="1.0" encoding="UTF-8" standalone="no"?>
<!-- Created with Inkscape (http://www.inkscape.org/) -->

<svg
   version="1.1"
   id="svg1"
   width="845.41547"
   height="844.73114"
   viewBox="0 0 845.41546 844.73114"
   xmlns="http://www.w3.org/2000/svg"
   xmlns:svg="http://www.w3.org/2000/svg">
  <defs
     id="defs1" />
  <g
     id="g1"
     transform="translate(0.04109598,0.06686578)">
    <g
       id="g2">
      <path
         style="fill:#b9b9b9;fill-opacity:1"
         d="M 154.66666,843.93128 C 119.86504,842.74968 105.04813,839.33265 80.691401,826.87132 43.955309,808.07651 14.616844,772.80801 3.3361298,733.88062 L 0,722.36834 V 421.97107 121.5738 L 3.9153862,109.59226 C 12.517234,83.269588 25.809012,62.123753 45.396356,43.600354 71.381618,19.02656 100.81141,5.3987952 136.48465,1.4209933 c 18.08085,-2.01613463 556.9727,-1.96796512 573.51533,0.051264 37.32186,4.555586 69.01459,19.7876177 94,45.1778957 17.48706,17.770423 29.28075,37.101966 37.37595,61.264527 l 3.95738,11.812 v 302.73449 302.73449 l -3.49169,11.06883 c -7.40087,23.46114 -20.60247,45.16721 -38.03474,62.53672 -22.751,22.66911 -50.3749,37.07103 -83.2268,43.39089 -10.99655,2.11546 -32.2313,2.30454 -275.91342,2.4569 -145.2,0.0908 -275.7,-0.23219 -290,-0.71772 z M 724.6553,808.9951 c 45.4261,-12.51945 77.11675,-44.20712 89.00348,-88.99512 l 3.00787,-11.33333 v -285.99999 -286 l -3.00948,-11.29131 C 800.89199,77.481329 762.10527,41.944556 713.99998,34.068448 701.88932,32.085612 674.62376,31.92355 416.66666,32.301147 l -284,0.415718 -11.33333,3.009393 C 72.554236,48.678802 35.971452,90.752815 29.352337,141.51398 c -1.021369,7.83276 -1.333174,93.70914 -1.04745,288.48601 l 0.406827,277.33333 3.003001,11.19133 c 5.292025,19.72187 14.850849,37.70088 28.544754,53.68926 17.438363,20.36024 47.747081,35.97415 77.073861,39.70556 4.76667,0.60649 135.86666,1.02271 291.33333,0.92494 l 282.66666,-0.17776 z M 415.99999,746.78697 c -3.3,-1.31943 -36.9,-15.47631 -74.66666,-31.45972 -37.76667,-15.98342 -71.66667,-30.19436 -75.33334,-31.57988 -3.66666,-1.38551 -8.31666,-4.30494 -10.33333,-6.48762 l -3.66667,-3.9685 V 558.71997 444.14869 l 3,-3.35784 c 2.96951,-3.32371 25.0348,-12.96543 124.22972,-54.28381 22.67635,-9.44554 42.32883,-17.17372 43.67217,-17.17372 2.19872,0 35.24929,13.56291 121.76477,49.96841 16.13334,6.78886 32.20581,13.41333 35.71662,14.72104 3.5108,1.30771 7.8608,4.13359 9.66666,6.27974 l 3.28339,3.90208 v 114.54333 114.54333 l -3.66667,3.91824 c -2.74503,2.93336 -16.23446,9.16963 -53.66666,24.81051 -27.5,11.49075 -63.2,26.47446 -79.33333,33.29713 -16.13334,6.82267 -30.53334,12.73425 -32,13.13683 -1.46667,0.40258 -5.36667,-0.34757 -8.66667,-1.66699 z m -9.65741,-129.66668 -0.34259,-90.8797 -12.66667,-5.22012 c -6.96666,-2.87106 -27.66666,-11.55916 -46,-19.30688 -18.33333,-7.74772 -40.38333,-16.9586 -48.99999,-20.46861 l -15.66667,-6.38185 v 90.6434 90.6434 l 6.33333,2.82049 c 19.72365,8.78373 114.59985,48.76356 116.00925,48.88507 1.33375,0.11499 1.60598,-18.41025 1.33334,-90.7352 z m 72.32408,74.94878 c 19.43333,-8.17688 46.28333,-19.42378 59.66666,-24.99311 l 24.33333,-10.12604 V 565.8908 474.83169 l -13.66666,5.74188 c -7.51667,3.15803 -17.26667,7.26656 -21.66667,9.13007 l -8,3.38819 -0.66667,36.75943 -0.66666,36.75943 -3.50973,3.50741 c -7.14397,7.13924 -21.80768,4.69112 -25.19017,-4.20553 -0.71506,-1.88073 -1.3001,-16.02089 -1.3001,-31.42257 0,-27.21683 -0.0735,-27.97973 -2.61637,-27.17264 -1.439,0.45672 -12.389,4.90844 -24.33333,9.89271 l -21.71697,9.06232 -0.34263,91.02174 c -0.32482,86.28906 -0.22083,90.98587 2,90.33187 1.28845,-0.37943 18.24263,-7.38005 37.67597,-15.55693 z M 443.59824,491.05369 c 10.41237,-4.19923 18.81237,-7.73944 18.66667,-7.86713 -0.14571,-0.12768 -8.96492,-3.92679 -19.59825,-8.44246 l -19.33334,-8.21031 -19.64078,7.7331 c -10.80242,4.2532 -19.65242,8.06808 -19.66666,8.47751 -0.0395,1.13462 34.93014,15.72165 37.97411,15.84032 1.46667,0.0572 11.18588,-3.33179 21.59825,-7.53103 z m -80.3789,-31.65068 c 9.95593,-3.995 19.01667,-7.77568 20.13496,-8.40151 1.46154,-0.81792 -3.2098,-3.2745 -16.61264,-8.73636 -10.25525,-4.17917 -19.41746,-7.58688 -20.36046,-7.57271 -0.943,0.0142 -10.40316,3.56388 -21.02258,7.88824 -17.72553,7.21804 -19.03691,7.98212 -16,9.32249 1.81942,0.80302 10.50804,4.40241 19.30804,7.99864 8.8,3.59624 16.10147,6.58951 16.22549,6.65173 0.12402,0.0622 8.37126,-3.15551 18.32719,-7.15052 z m 156.44731,-0.9918 c 9.71667,-3.83147 17.66096,-7.29142 17.65398,-7.68877 -0.016,-0.91098 -36.10352,-16.05578 -38.25823,-16.05578 -1.96346,0 -39.30887,14.86465 -38.74985,15.42367 1.31319,1.31319 36.8218,15.16198 39.02077,15.21858 1.46667,0.0377 10.61667,-3.06622 20.33333,-6.8977 z m -76.00551,-33.16537 c 9.71364,-3.86906 17.51364,-7.16228 17.33334,-7.31827 -0.1803,-0.156 -8.80384,-3.89757 -19.16342,-8.31461 l -18.8356,-8.03099 -19.1644,7.78195 c -12.71643,5.16367 -18.41311,8.07282 -16.93145,8.64647 1.22813,0.4755 9.92813,4.09099 19.33334,8.03443 9.4052,3.94344 17.70037,6.95969 18.43371,6.70278 0.73333,-0.25691 9.28085,-3.6327 18.99448,-7.50176 z M 94.666664,309.33333 c -2.619173,-2.61918 -2.666666,-4.44445 -2.666666,-102.48686 0,-98.96646 0.02363,-99.85023 2.76344,-103.33333 3.5257,-4.482199 11.825722,-4.923983 15.903222,-0.84648 2.61958,2.61958 2.66667,4.44445 2.66667,103.33334 0,98.88888 -0.0471,100.71375 -2.66667,103.33333 -1.77777,1.77777 -4.44444,2.66666 -8,2.66666 -3.555551,0 -6.222218,-0.88889 -7.999996,-2.66666 z m 36.873316,0.22834 c -2.01239,-2.22366 -2.20665,-11.32056 -2.20665,-103.33333 0,-99.11723 0.047,-100.942 2.66667,-103.56168 3.68935,-3.689348 12.06783,-3.6103 15.46001,0.14586 2.45254,2.7157 2.53634,6.28014 2.43419,103.5368 l -0.10579,100.72428 -3.04192,2.4632 c -3.99407,3.2342 -12.28982,3.24777 -15.20651,0.0249 z m 36.69243,-0.64761 -2.89908,-3.08594 V 205.6775 105.52688 l 3.51314,-2.76344 c 5.29486,-4.164933 16.81651,-3.888332 21.21413,0.50928 l 3.27273,3.27273 -0.1161,89.06061 c -0.0639,48.98333 -0.52073,94.36399 -1.01527,100.84592 -1.07457,14.0841 -2.35108,15.54801 -13.55772,15.54801 -6.12902,0 -8.0467,-0.56837 -10.41183,-3.08593 z m 43.76758,0.41927 c -2.61946,-2.61947 -2.66666,-4.44445 -2.66666,-103.10092 V 105.79817 l 3.08593,-2.89909 c 4.60644,-4.327518 13.17639,-4.014599 16.81729,0.61406 2.73947,3.48267 2.76344,4.37394 2.76344,102.72727 v 99.21413 l -3.27272,3.27273 c -4.22643,4.22643 -12.7964,4.53693 -16.72728,0.60606 z m 42.66667,0 c -2.61946,-2.61947 -2.66667,-4.44445 -2.66667,-103.10092 V 105.79817 l 3.08594,-2.89909 c 4.37015,-4.105542 12.01907,-3.915287 16.34081,0.40645 l 3.30554,3.30554 -0.36614,99.8884 c -0.35218,96.07845 -0.46303,99.99543 -2.90613,102.69446 -3.4556,3.81759 -13.03563,3.89711 -16.79335,0.1394 z m 37.43011,-0.84648 c -2.73947,-3.48267 -2.76344,-4.37394 -2.76344,-102.72727 v -99.21413 l 3.27272,-3.27273 c 2.78984,-2.78984 4.52613,-3.272722 11.76758,-3.272722 7.15562,0 8.95191,0.486512 11.39394,3.085932 l 2.89909,3.08594 v 99.40092 c 0,98.5423 -0.0239,99.43126 -2.76344,102.91406 -2.50522,3.18487 -3.61747,3.51314 -11.90323,3.51314 -8.28576,0 -9.398,-0.32827 -11.90322,-3.51314 z m 43.90322,0.84648 c -2.61929,-2.61929 -2.66666,-4.44445 -2.66666,-102.72727 V 106.54545 l 3.27272,-3.27273 c 4.14637,-4.146367 11.56169,-4.438309 15.39394,-0.60606 2.61957,2.61958 2.66667,4.44445 2.66667,103.33334 0,98.88888 -0.0471,100.71375 -2.66667,103.33333 -1.77778,1.77777 -4.44444,2.66666 -8,2.66666 -3.55555,0 -6.22222,-0.88889 -8,-2.66666 z m 36.87332,0.22834 c -2.01239,-2.22366 -2.20665,-11.32056 -2.20665,-103.33333 0,-99.11723 0.047,-100.942 2.66666,-103.56168 4.07751,-4.077503 12.37753,-3.635719 15.90323,0.84648 2.7391,3.4822 2.76344,4.38141 2.76344,102.08766 0,98.88719 -0.15345,102.45451 -4.53294,105.37878 -2.97721,1.98794 -12.33423,1.07882 -14.59374,-1.41791 z m 37.04122,-0.85926 -3.29758,-3.29758 0.35819,-99.98856 c 0.41407,-115.589139 -1.18001,-104.38445 14.96668,-105.19982 9.19067,-0.464112 10.14126,-0.254574 13.33532,2.93949 l 3.43922,3.43922 -0.35818,100.15391 -0.35819,100.1539 -3.14771,2.54851 c -2.42271,1.96152 -5.27738,2.54851 -12.39394,2.54851 -8.05813,0 -9.66995,-0.42372 -12.54381,-3.29758 z m 46.62544,0.49093 c -2.45053,-2.70781 -2.53998,-6.35098 -2.53998,-103.45113 V 105.09772 l 3.14771,-2.54886 c 4.14865,-3.359375 11.43289,-3.301599 14.85229,0.1178 2.61979,2.61979 2.66667,4.44445 2.66667,103.79335 0,96.27656 -0.11695,101.23252 -2.43833,103.33333 -3.58145,3.24117 -12.52157,2.89926 -15.68836,-0.6 z m 36.79335,0.13999 c -2.61957,-2.61958 -2.66667,-4.44445 -2.66667,-103.33333 0,-98.88889 0.0471,-100.71376 2.66667,-103.33334 4.09225,-4.092243 12.37761,-3.63561 15.92789,0.87784 2.77958,3.53366 2.78702,3.8494 2.43011,103.19382 -0.34435,95.84949 -0.45485,99.75633 -2.89798,102.4555 -3.39387,3.74954 -11.77436,3.82517 -15.46002,0.13951 z m 36.09677,-0.84648 c -2.73975,-3.48303 -2.76344,-4.368 -2.76344,-103.23656 v -99.72341 l 3.51315,-2.76344 c 3.52803,-2.775155 14.71623,-3.870848 19.76045,-1.9352 6.0317,2.31458 6.06444,2.86986 5.98026,101.43888 -0.0437,51.18641 -0.5637,96.01575 -1.15553,99.62074 -1.37743,8.39041 -3.80476,10.11213 -14.25639,10.11213 -7.39479,0 -8.6209,-0.38881 -11.0785,-3.51314 z m 45.23656,0.84648 c -2.61957,-2.61958 -2.66666,-4.44445 -2.66666,-103.33333 0,-98.88889 0.0471,-100.71376 2.66666,-103.33334 3.81612,-3.816114 11.9929,-3.598689 15.76758,0.41927 l 2.89909,3.08594 v 100.19545 100.19546 l -2.91808,2.71861 c -3.89562,3.62932 -12.144,3.65652 -15.74859,0.0519 z m 42.66667,0 c -2.61957,-2.61958 -2.66667,-4.44445 -2.66667,-103.33333 0,-98.88889 0.0471,-100.71376 2.66667,-103.33334 3.61921,-3.619206 12.38079,-3.619206 16,0 2.61957,2.61958 2.66666,4.44445 2.66666,103.33334 0,98.88888 -0.0471,100.71375 -2.66666,103.33333 -1.77778,1.77777 -4.44445,2.66666 -8,2.66666 -3.55556,0 -6.22222,-0.88889 -8,-2.66666 z m 38.89908,-0.41927 -2.89908,-3.08594 0.0204,-99.91406 c 0.0112,-54.95273 0.46123,-100.57424 1,-101.38112 1.89652,-2.8403 6.87264,-4.532942 13.32618,-4.532942 5.09331,0 7.15693,0.675962 9.42099,3.085932 l 2.89908,3.08594 v 100.01497 100.01498 l -3.08593,2.89909 c -4.52754,4.2534 -16.61282,4.14422 -20.68165,-0.18685 z m 41.97423,0.64761 c -2.01262,-2.22393 -2.20665,-11.36163 -2.20665,-103.92439 V 104.15121 l 2.96334,-2.07561 c 3.93536,-2.756426 10.72828,-2.633568 14.25002,0.25773 l 2.84211,2.33333 0.3056,100.8511 c 0.29554,97.53123 0.22199,100.94379 -2.23438,103.66667 -3.32869,3.68984 -12.72076,3.9124 -15.92004,0.37724 z m 36.46002,-0.22834 c -2.61947,-2.61947 -2.66667,-4.44445 -2.66667,-103.10092 V 105.79817 l 3.08594,-2.89909 c 4.03272,-3.788545 11.90714,-3.906009 15.58073,-0.23242 2.61957,2.61958 2.66667,4.44445 2.66667,103.33334 0,98.88888 -0.0471,100.71375 -2.66667,103.33333 -1.77778,1.77777 -4.44445,2.66666 -8,2.66666 -3.55556,0 -6.22222,-0.88889 -8,-2.66666 z"
         id="path8" />
      <path
         style="fill:#a3a3a3;fill-opacity:1"
         d="M 124.66666,841.85655 C 76.505038,833.25913 35.292802,802.426 13.249241,758.49908 9.6319013,751.29068 5.1710012,740.21238 3.3361298,733.88062 L 0,722.36834 V 421.97107 121.5738 L 3.9153862,109.59226 C 12.517234,83.269588 25.809012,62.123753 45.396356,43.600354 71.68892,18.73595 101.49175,5.0752942 137.50808,1.3793209 c 18.94778,-1.94440991 553.95455,-1.89698499 571.42112,0.050653 37.54975,4.1870446 69.77575,19.5152651 95.07078,45.2201791 17.63193,17.917637 29.55509,37.547513 37.41426,61.597507 l 3.91907,11.99281 v 302.47759 302.4776 l -3.44934,11.06883 c -3.9788,12.76783 -15.27889,34.97465 -23.44984,46.08339 -22.35356,30.39058 -59.45841,52.93427 -98.26264,59.70117 -16.54579,2.88534 -579.28217,2.70344 -595.50483,-0.1925 z M 711.99998,811.3848 c 49.54997,-7.56075 85.53382,-38.98761 100.93974,-88.15671 l 3.72693,-11.89477 V 423.99999 136.66666 l -3.00787,-11.33333 C 810.36921,112.93856 802.55175,95.561099 795.80861,85.65412 789.4609,76.328095 773.76786,60.452451 764.94096,54.427288 753.76524,46.79885 737.02647,39.131761 723.99998,35.674531 l -11.33333,-3.007865 h -289.99999 -290 l -11.33333,3.015529 C 77.109965,47.448978 43.236692,82.139764 31.681877,127.49734 l -3.015211,11.83599 v 283.99999 284 l 2.999696,11.33333 c 4.233528,15.99495 15.812967,38.53853 26.0178,50.65309 19.486423,23.1331 48.079348,38.61749 78.648748,42.59193 4.58356,0.59592 133.13375,1.15604 285.66708,1.24471 236.10137,0.13725 279.21652,-0.12614 289.99999,-1.77158 z M 382.66666,732.74228 c -19.43334,-8.30268 -54.23333,-23.04527 -77.33333,-32.76131 -23.1,-9.71604 -43.63985,-18.49666 -45.6441,-19.51249 -8.00119,-4.05531 -7.68924,0.93039 -7.68924,-122.88914 0,-130.17034 -1.46626,-117.24038 13.99707,-123.43077 4.78875,-1.91707 29.84844,-12.41871 55.68821,-23.33699 88.25564,-37.29133 99.61829,-41.7745 103.45035,-40.81666 3.38306,0.84561 44.73785,17.95646 117.53103,48.62934 18.7,7.87963 36.23037,15.0527 38.95637,15.94016 2.726,0.88747 6.476,3.41956 8.33333,5.62687 l 3.37697,4.0133 V 558.6946 673.18461 l -3,3.48608 c -2.96483,3.44521 -8.82905,6.07258 -82.33333,36.88809 -15.76667,6.60993 -40.51662,17.06326 -54.99989,23.22963 -15.82024,6.73559 -28.06326,11.17925 -30.66667,11.13061 -2.40088,-0.0449 -20.09088,-6.81315 -39.66677,-15.17674 z M 407.99999,618.12441 V 526.9155 l -10.33333,-4.25694 c -23.313,-9.60408 -59.62285,-24.80278 -79.66667,-33.34715 -11.73333,-5.00174 -24.48333,-10.33422 -28.33333,-11.84995 l -7,-2.75589 v 90.72058 90.72058 l 7.66667,3.44351 c 7.64684,3.4346 116.70065,49.63197 117.33333,49.70474 0.18333,0.0211 0.33333,-41.00567 0.33333,-91.17057 z m 71.41116,73.69224 c 21.22386,-8.90083 48.48884,-20.26203 60.58884,-25.2471 l 22,-9.06378 0.3425,-91.35158 0.3425,-91.35158 -15.67583,6.47325 c -8.62171,3.56028 -18.52584,7.70837 -22.00917,9.21797 l -6.33334,2.74473 v 35.7507 c 0,39.11044 -0.0871,39.5855 -8.01472,43.68501 -4.91124,2.5397 -9.74518,2.52977 -14.69559,-0.0302 -7.28218,-3.76576 -7.95635,-6.97812 -7.95635,-37.91121 0,-15.43642 -0.51226,-28.06622 -1.13835,-28.06622 -0.62609,0 -11.57608,4.40677 -24.33333,9.79282 l -23.19499,9.79282 -0.34258,90.87385 c -0.18843,49.98061 0.1466,90.87384 0.74449,90.87384 0.5979,0 18.45206,-7.2825 39.67592,-16.18333 z M 459.75212,481.94397 c -1.697,-0.8544 -10.69345,-4.72213 -19.99211,-8.59498 l -16.90664,-7.04153 -19.09336,7.74274 c -10.50134,4.25851 -19.51204,8.08933 -20.02376,8.51293 -0.51173,0.42361 8.12462,4.44518 19.19188,8.93684 l 20.12228,8.16665 19.89359,-8.08461 c 18.15115,-7.37649 19.62334,-8.22067 16.80812,-9.63804 z m -97.50297,-22.04338 c 26.73053,-10.66428 26.24301,-8.89432 4.86618,-17.66701 -10.14677,-4.16406 -19.33076,-7.5701 -20.40887,-7.56897 -2.37273,0.002 -39.99044,15.05731 -39.98452,16.00205 0.003,0.48436 36.0101,15.48461 38.25622,15.93722 0.17132,0.0345 7.94327,-2.98196 17.27099,-6.70329 z m 164.08417,-3.96783 c 6.05,-2.3925 11,-4.73949 11,-5.21553 0,-1.02744 -35.91826,-16.08023 -38.32802,-16.06267 -2.18881,0.0159 -39.26581,14.86271 -38.65134,15.47718 0.26095,0.26095 9.12842,4.03006 19.70549,8.37582 l 19.23104,7.90137 8.02142,-3.06309 c 4.41177,-1.6847 12.97141,-5.02059 19.02141,-7.41308 z M 443.7466,425.32132 c 9.76063,-3.81657 17.54292,-7.14291 17.29397,-7.39186 -0.24894,-0.24894 -8.8608,-4.04931 -19.13745,-8.44526 l -18.68481,-7.99263 -19.27583,7.83444 -19.27582,7.83444 5.33333,2.24521 c 24.08404,10.13886 33.52319,13.77371 34.66667,13.34951 0.73333,-0.27205 9.3193,-3.61728 19.07994,-7.43385 z M 94.763438,308.48685 c -2.739464,-3.48267 -2.76344,-4.37394 -2.76344,-102.72727 v -99.21413 l 3.272727,-3.27273 c 4.279043,-4.279038 11.529715,-4.446645 15.341995,-0.35464 2.68603,2.88311 2.71861,4.12159 2.71861,103.33333 0,98.63747 -0.0472,100.46246 -2.66667,103.08192 -4.0775,4.0775 -12.377522,3.63572 -15.903222,-0.84648 z M 132,309.33333 c -2.61958,-2.61958 -2.66667,-4.44445 -2.66667,-103.33333 0,-98.88889 0.0471,-100.71376 2.66667,-103.33334 3.48591,-3.485905 12.06147,-3.615358 15.12668,-0.22834 2.01239,2.22366 2.20665,11.32056 2.20665,103.33333 0,99.11723 -0.047,100.942 -2.66667,103.56168 -1.65079,1.65079 -4.44444,2.66666 -7.33333,2.66666 -2.88889,0 -5.68254,-1.01587 -7.33333,-2.66666 z m 36.09677,-0.84648 c -2.73946,-3.48267 -2.76344,-4.37394 -2.76344,-102.72727 v -99.21413 l 3.27273,-3.27273 c 4.2807,-4.280703 16.02568,-4.684235 20.91289,-0.71852 l 3.14771,2.55421 -0.4824,100.44579 c -0.47673,99.2645 -0.51474,100.48107 -3.23242,103.44579 -2.24108,2.4448 -4.16962,3 -10.42082,3 -6.6988,0 -8.02098,-0.44517 -10.43425,-3.51314 z m 44,0 c -2.73947,-3.48267 -2.76344,-4.37394 -2.76344,-102.72727 v -99.21413 l 3.27273,-3.27273 c 4.70707,-4.707074 12.84323,-4.57431 16.65516,0.27178 2.7797,3.53382 2.78703,3.84568 2.43011,103.45149 l -0.358,99.90698 -3.14771,2.54851 c -4.79003,3.87819 -12.65019,3.40692 -16.08885,-0.96463 z m 42.80231,0.42721 -2.89909,-3.08594 v -99.64133 -99.64134 l 3.27273,-3.27273 c 4.02651,-4.026506 11.09048,-4.358896 15.5688,-0.73257 l 3.13695,2.54015 -0.34409,101.12651 c -0.34302,100.81188 -0.35278,101.13378 -3.13695,103.45985 -4.09669,3.42263 -12.03578,3.03958 -15.59835,-0.7526 z m 37.19769,-0.42721 c -2.73947,-3.48267 -2.76344,-4.37394 -2.76344,-102.72727 v -99.21413 l 3.27272,-3.27273 c 2.75833,-2.75832 4.5492,-3.272722 11.39394,-3.272722 6.84475,0 8.63561,0.514402 11.39394,3.272722 l 3.27273,3.27273 v 99.21413 c 0,98.35333 -0.024,99.2446 -2.76344,102.72727 -2.50522,3.18487 -3.61747,3.51314 -11.90323,3.51314 -8.28576,0 -9.398,-0.32827 -11.90322,-3.51314 z m 44,0 c -2.73947,-3.48267 -2.76344,-4.37394 -2.76344,-102.72727 v -99.21413 l 3.27272,-3.27273 c 4.14637,-4.146367 11.56169,-4.438309 15.39394,-0.60606 2.61957,2.61958 2.66667,4.44445 2.66667,103.33334 0,98.88888 -0.0471,100.71375 -2.66667,103.33333 -4.07751,4.0775 -12.37752,3.63572 -15.90322,-0.84648 z m 37.53323,1.43754 -2.96334,-2.07561 V 206.643 105.43721 l 2.91808,-2.71861 c 4.11529,-3.833976 11.01791,-3.570488 15.16738,0.57898 l 3.29758,3.29758 -0.35819,99.89624 c -0.34455,96.09218 -0.45491,100.0031 -2.89817,102.70242 -3.07561,3.39793 -10.82228,3.77116 -15.16334,0.73057 z m 36.85104,-0.47288 -3.14772,-2.54849 -0.40003,-97.11818 c -0.26573,-64.51213 0.0659,-98.72312 0.98772,-101.89856 1.73589,-5.97959 5.65318,-7.886282 16.20232,-7.886282 6.71379,0 8.52332,0.525442 11.2706,3.272722 l 3.27273,3.27273 v 97.19497 c 0,67.52479 -0.44984,98.48536 -1.47358,101.42209 -1.95104,5.59674 -4.66529,6.83748 -14.95772,6.83748 -6.4868,0 -9.3819,-0.62769 -11.75432,-2.54848 z m 46.05893,-0.25746 c -2.45054,-2.70713 -2.53998,-6.35002 -2.53998,-103.44993 V 105.10013 l 3.14771,-2.55006 c 4.14804,-3.360468 11.43241,-3.303282 14.85229,0.11659 2.61957,2.61958 2.66667,4.44445 2.66667,103.33334 0,98.88888 -0.0471,100.71375 -2.66667,103.33333 -3.68552,3.68552 -12.06609,3.61002 -15.46002,-0.13928 z m 36.79335,0.13928 c -2.61917,-2.61918 -2.66667,-4.44445 -2.66667,-102.48686 0,-98.96646 0.0236,-99.85023 2.76344,-103.33333 3.5822,-4.554027 11.554,-4.918093 15.36325,-0.70163 2.45134,2.7134 2.53845,6.32487 2.49616,103.48662 l -0.0438,100.6751 -3.10389,2.51338 c -4.10984,3.32795 -11.40273,3.25246 -14.80847,-0.15328 z m 36.60606,-0.60606 -3.27273,-3.27273 V 206 106.54545 l 3.27273,-3.27273 c 2.69708,-2.69708 4.58868,-3.272722 10.75432,-3.272722 4.11488,0 8.5941,0.595392 9.95383,1.323102 5.10474,2.73197 5.46471,7.96335 4.82801,70.16381 -0.33693,32.91553 -0.65677,76.77304 -0.71074,97.46114 -0.0963,36.91591 -0.15236,37.66524 -3.01623,40.33334 -4.50699,4.1989 -17.38332,3.87174 -21.80919,-0.55412 z m 44.72727,0.60606 c -2.61957,-2.61958 -2.66666,-4.44445 -2.66666,-103.33333 0,-98.88889 0.0471,-100.71376 2.66666,-103.33334 4.07751,-4.077503 12.37753,-3.635719 15.90323,0.84648 2.73967,3.48294 2.76344,4.36958 2.76344,103.10091 v 99.58777 l -3.08594,2.89909 c -4.03272,3.78855 -11.90713,3.90601 -15.58073,0.23242 z m 42.66667,0 c -2.61955,-2.61955 -2.66667,-4.44445 -2.66667,-103.28139 V 105.43721 l 2.91808,-2.71861 c 3.89562,-3.629316 12.144,-3.65652 15.74859,-0.0519 2.61955,2.61955 2.66666,4.44445 2.66666,103.28139 v 100.61473 l -2.91808,2.71861 c -3.89562,3.62932 -12.144,3.65652 -15.74858,0.0519 z m 38.89908,-0.41927 -2.89908,-3.08594 V 205.6775 105.52688 l 3.51314,-2.76344 c 5.21862,-4.104967 15.53071,-3.840802 19.8808,0.50928 l 3.27272,3.27273 V 206 305.45454 l -3.27272,3.27273 c -4.62054,4.62053 -16.23017,4.72634 -20.49486,0.18679 z m 41.97423,0.64761 c -2.01239,-2.22366 -2.20665,-11.32056 -2.20665,-103.33333 0,-99.11723 0.047,-100.942 2.66667,-103.56168 3.3345,-3.334493 10.69781,-3.503634 14.51126,-0.33333 l 2.80668,2.33333 0.0869,101.32358 0.0869,101.32357 -2.89359,2.34309 c -3.84949,3.11713 -12.19883,3.06433 -15.05819,-0.0952 z m 36.46002,-0.22834 c -2.61947,-2.61947 -2.66667,-4.44445 -2.66667,-103.10092 V 105.79817 l 3.08594,-2.89909 c 4.22881,-3.972764 11.52399,-3.883953 15.34831,0.18685 l 2.89909,3.08594 v 100.01497 100.01498 l -3.08594,2.89909 c -4.03272,3.78855 -11.90714,3.90601 -15.58073,0.23242 z"
         id="path7" />
      <path
         style="fill:#8c8c8c;fill-opacity:1"
         d="M 128.66666,842.52198 C 89.807366,836.92224 52.118047,814.38716 27.783333,782.20212 18.274275,769.62547 6.6868157,746.41148 2.7378775,732.02678 0.01396602,722.10445 0,720.52491 0,422.37607 V 122.69855 L 4.131059,109.68261 C 23.415492,48.922139 74.615217,7.7998596 139.00419,1.3560433 149.76339,0.2793012 232.72879,-0.01028918 432.66666,0.33101568 686.12618,0.76368493 712.30204,1.0072229 722.04264,3.0233453 778.95352,14.802832 821.1543,51.388291 840.82466,106 l 3.84199,10.66666 0.34473,303.81797 0.34473,303.81796 -2.80377,9.51536 c -14.42243,48.94644 -55.45291,90.00067 -103.88569,103.94581 -22.44624,6.4629 -11.22095,6.24749 -316.50798,6.07363 -157.0206,-0.0894 -289.09201,-0.68136 -293.49201,-1.31541 z m 596.73971,-33.37917 c 35.11463,-9.7128 63.52499,-32.56414 78.50353,-63.14283 6.2315,-12.7216 8.47083,-19.26971 11.6795,-34.15242 2.28176,-10.5834 2.41058,-26.0373 2.41058,-289.1809 0,-254.02024 -0.1912,-278.92008 -2.21664,-288.66666 C 810.13867,106.83733 797.94796,84.605447 778.4915,65.99186 760.81027,49.076594 742.5156,39.527642 718.355,34.603459 c -12.7387,-2.59628 -18.27767,-2.638578 -300,-2.290955 l -287.02167,0.354162 -10.66667,2.970301 C 82.755887,46.19382 51.251305,74.473457 36.863042,110.86209 c -8.864045,22.41761 -8.196376,-3.036 -8.196376,312.47123 v 285.33333 l 3.044945,10.51204 c 6.959132,24.02494 17.278741,42.13793 32.807992,57.58461 19.191463,19.08943 43.352477,31.29613 69.480397,35.10311 4.40155,0.64133 136.34466,1.08346 293.33332,0.98294 l 285.33333,-0.1827 z M 409.99999,744.19397 c -4.4,-2.026 -40.63448,-17.42289 -80.52107,-34.2153 -64.39039,-27.10861 -72.79844,-30.98649 -74.99502,-34.58851 -2.35822,-3.86708 -2.47384,-9.32699 -2.4719,-116.72351 0.002,-105.06464 0.1599,-112.92659 2.34178,-116.519 1.96317,-3.23233 8.13159,-6.29408 38.32631,-19.02361 78.95405,-33.28554 128.54343,-53.79072 130.08661,-53.79072 1.60097,0 18.61711,6.98124 109.23329,44.8153 54.37848,22.7041 57.45593,24.17597 59.62718,28.51804 1.29396,2.58764 1.67123,28.74462 1.68649,116.92564 l 0.0197,113.59231 -3,3.42113 c -3.00723,3.42937 -12.44865,7.63478 -88.33333,39.34559 -19.06667,7.96761 -43.86957,18.43803 -55.11756,23.26761 -11.40906,4.89873 -22.31479,8.75399 -24.66667,8.71986 -2.31867,-0.0337 -7.81577,-1.71883 -12.21577,-3.74483 z m -2,-126.23583 c 0,-85.80986 -0.14211,-91.42718 -2.33333,-92.22892 -2.97191,-1.08738 -66.87266,-27.72401 -98.27723,-40.96624 -13.16914,-5.55298 -24.11914,-10.09632 -24.33333,-10.09632 -0.21419,0 -0.38105,40.94999 -0.3708,90.99999 l 0.0186,91 36.98137,15.65025 c 20.33974,8.60764 48.08136,20.40547 61.64802,26.2174 13.56667,5.81193 25.11667,10.61932 25.66667,10.68308 0.55,0.0638 1,-41.00289 1,-91.25924 z m 91.33333,65.7301 c 32.26667,-13.51734 59.71667,-24.95819 61,-25.4241 2.19126,-0.79555 2.33333,-6.40663 2.33333,-92.15295 v -91.30582 l -3.66666,1.36215 c -2.01667,0.74918 -11.76667,4.76828 -21.66667,8.93134 l -18,7.56919 -0.66667,36.8619 c -0.6076,33.5959 -0.88768,37.1059 -3.16122,39.61578 -6.6302,7.31942 -19.99642,6.48639 -24.89756,-1.5517 -2.35935,-3.86945 -2.59837,-6.86253 -2.6029,-32.59404 -0.003,-15.58334 -0.45498,-28.33505 -1.00498,-28.33714 -0.55,-0.002 -11.64024,4.34791 -24.64498,9.66667 l -23.64497,9.67047 -0.0217,91.74535 c -0.0119,50.45995 0.42831,91.46962 0.97831,91.13261 0.55,-0.337 27.4,-11.67238 59.66666,-25.18971 z M 462.24883,483.52893 c 0.56009,-0.56009 -37.43902,-16.86227 -39.30464,-16.86227 -0.9225,0 -13.82244,5.11136 -37.61087,14.90262 -3.17488,1.30678 -3.20657,1.42428 -0.66666,2.47181 1.46666,0.6049 10.64824,4.3836 20.4035,8.39712 l 17.73684,7.29729 19.46127,-7.84364 c 10.7037,-4.314 19.69495,-8.07732 19.98056,-8.36293 z m -97.43992,-24.36325 c 10.18843,-4.12554 19.01119,-7.94232 19.60614,-8.48173 0.89311,-0.80974 -31.28419,-15.0422 -36.85549,-16.30168 -1.80544,-0.40815 -40.89196,15.16149 -40.88084,16.28439 0.006,0.60743 36.91537,15.76052 38.79685,15.92799 0.44491,0.0396 9.14491,-3.30343 19.33334,-7.42897 z m 154.85774,-0.54098 c 9.71667,-3.84633 17.66667,-7.39884 17.66667,-7.89446 0,-1.1508 -35.99762,-16.13041 -38.66667,-16.09028 -1.1,0.0165 -9.2,2.93064 -17.99999,6.47578 -8.8,3.54514 -17.13588,6.8585 -18.52418,7.36303 -1.38829,0.50453 -2.16192,1.27957 -1.71917,1.72232 1.61672,1.61671 38.94979,16.36531 40.24334,15.89831 0.73334,-0.26475 9.28334,-3.62836 19,-7.4747 z M 442.72157,425.838 c 10.30272,-4.12242 18.53741,-7.69014 18.2993,-7.92824 -0.23811,-0.23811 -8.87474,-4.044 -19.19251,-8.45754 l -18.75958,-8.02461 -18.8827,7.53788 c -10.38549,4.14584 -18.41591,8.00468 -17.84537,8.57522 0.99115,0.99115 34.58771,15.3281 36.65396,15.64167 0.54708,0.083 9.42419,-3.22195 19.7269,-7.34438 z M 94.738771,308.45549 C 91.959069,304.92167 91.951744,304.60981 92.308664,205.004 l 0.358,-99.90698 3.147712,-2.54851 c 4.369284,-3.537544 11.021364,-3.293014 14.619874,0.53742 l 2.89908,3.08594 v 100.01497 100.01498 l -3.08593,2.89909 c -4.51587,4.24244 -11.905752,3.93489 -15.508629,-0.64542 z M 132,309.33333 c -2.61958,-2.61958 -2.66667,-4.44445 -2.66667,-103.33333 0,-98.88889 0.0471,-100.71376 2.66667,-103.33334 1.65079,-1.65079 4.44444,-2.666662 7.33333,-2.666662 2.88889,0 5.68254,1.015872 7.33333,2.666662 2.61958,2.61958 2.66667,4.44445 2.66667,103.33334 0,98.88888 -0.0471,100.71375 -2.66667,103.33333 -1.65079,1.65079 -4.44444,2.66666 -7.33333,2.66666 -2.88889,0 -5.68254,-1.01587 -7.33333,-2.66666 z m 36.60606,-0.60606 -3.27273,-3.27273 V 206 106.54545 l 3.27273,-3.27273 c 4.37899,-4.378987 16.59708,-4.736241 20.72727,-0.60606 2.61953,2.61953 2.66667,4.44445 2.66667,103.23656 v 100.56989 l -3.51315,2.76344 c -5.21862,4.10497 -15.53071,3.8408 -19.88079,-0.50928 z m 43.49071,-0.24042 c -2.73947,-3.48267 -2.76344,-4.37394 -2.76344,-102.72727 v -99.21413 l 3.27273,-3.27273 c 4.47122,-4.471215 11.66807,-4.453135 16.16181,0.0406 l 3.31333,3.31333 -0.37394,100.13832 -0.37393,100.13831 -3.14771,2.54835 c -4.79011,3.87801 -12.65026,3.40667 -16.08885,-0.96479 z m 42.66666,0 c -2.73946,-3.48267 -2.76344,-4.37394 -2.76344,-102.72727 v -99.21413 l 3.27273,-3.27273 c 4.14637,-4.146367 11.56169,-4.438309 15.39394,-0.60606 2.61957,2.61958 2.66667,4.44445 2.66667,103.33334 0,98.88888 -0.0471,100.71375 -2.66667,103.33333 -4.07751,4.0775 -12.37753,3.63572 -15.90323,-0.84648 z m 37.84262,0.24042 -3.27272,-3.27273 v -99.24623 c 0,-115.052022 -1.30386,-104.99264 13.73279,-105.9501 8.01559,-0.510396 9.04719,-0.266112 12.20301,2.88971 l 3.44724,3.44724 -0.35819,100.15391 -0.35819,100.1539 -3.14771,2.54851 c -2.30874,1.86925 -5.25677,2.54851 -11.06061,2.54851 -6.62356,0 -8.44615,-0.53326 -11.18562,-3.27272 z m 43.46605,-0.27178 c -2.7797,-3.53382 -2.78703,-3.84568 -2.43011,-103.45149 l 0.358,-99.90698 3.14771,-2.54851 c 4.10278,-3.321772 9.61721,-3.237148 14.00581,0.21493 l 3.51315,2.76344 v 100.56989 c 0,98.79211 -0.0471,100.61703 -2.66667,103.23656 -4.09225,4.09224 -12.37761,3.63561 -15.92789,-0.87784 z m 37.26122,0.87784 c -2.61952,-2.61953 -2.66666,-4.44445 -2.66666,-103.23656 V 105.52688 l 3.51314,-2.76344 c 4.3891,-3.452465 9.90352,-3.536646 14.00581,-0.21381 l 3.14771,2.54964 v 100.64429 c 0,97.10017 -0.0894,100.74311 -2.53998,103.45036 -3.39389,3.74944 -11.77442,3.825 -15.46002,0.13941 z m 37.14772,0.11745 -3.14772,-2.54921 V 206.82094 106.74031 l 2.92077,-2.92055 c 2.08006,-2.07991 5.05245,-3.09734 10.32661,-3.53471 8.78993,-0.72893 14.49376,1.28975 16.57966,5.8678 1.79834,3.94692 2.06165,187.04061 0.28223,196.24446 -1.49814,7.74892 -4.25258,9.50898 -14.96155,9.56028 -6.77439,0.0325 -9.59116,-0.55597 -12,-2.50681 z m 46.39227,0.11089 c -2.01239,-2.22366 -2.20665,-11.32056 -2.20665,-103.33333 0,-99.11723 0.047,-100.942 2.66666,-103.56168 3.66655,-3.666542 11.08346,-3.53895 14.61473,0.25142 2.68602,2.88311 2.71861,4.12159 2.71861,103.33333 0,98.63747 -0.0472,100.46246 -2.66667,103.08192 -3.48591,3.48591 -12.06148,3.61536 -15.12668,0.22834 z m 36.69243,-0.64761 -2.89909,-3.08594 V 206.4272 c 0,-98.5423 0.0239,-99.43126 2.76344,-102.91406 3.21891,-4.092172 9.56997,-4.731824 14.27322,-1.43754 l 2.96334,2.07561 V 206 307.84878 l -2.96334,2.07561 c -4.38673,3.07259 -10.72757,2.61944 -14.13757,-1.01033 z m 36.37364,-0.18679 -3.27273,-3.27273 v -99.24623 c 0,-114.396865 -1.14708,-104.90729 12.80169,-105.9058 6.58251,-0.471208 8.46287,-0.0912 11.53165,2.33068 l 3.66666,2.89369 V 206 306.47311 l -3.51314,2.76344 c -5.29485,4.16493 -16.81651,3.88833 -21.21413,-0.50928 z m 44.72727,0.60606 c -2.61946,-2.61947 -2.66666,-4.44445 -2.66666,-103.10092 V 105.79817 l 3.08593,-2.89909 c 4.23142,-3.97521 10.78945,-3.811577 14.97467,0.37364 l 3.27273,3.27273 v 99.96383 99.96383 l -3.51315,2.76344 c -4.52073,3.55601 -11.64876,3.60153 -15.15352,0.0968 z m 42.66667,0 c -2.61953,-2.61953 -2.66667,-4.44445 -2.66667,-103.23656 V 105.52688 l 3.51315,-2.76344 c 4.7378,-3.726759 11.24924,-3.586025 14.9211,0.32249 l 2.89908,3.08594 v 100.15062 100.15062 l -3.51314,2.76344 c -4.52073,3.55601 -11.64877,3.60153 -15.15352,0.0968 z m 39.27272,-0.60606 -3.27272,-3.27273 v -99.96383 -99.96383 l 3.51314,-2.76344 c 5.21862,-4.104967 15.53071,-3.840802 19.8808,0.50928 l 3.27272,3.27273 V 206 305.45454 l -3.27272,3.27273 c -2.61761,2.6176 -4.6315,3.27272 -10.06061,3.27272 -5.42911,0 -7.443,-0.65512 -10.06061,-3.27272 z m 42.06061,0.60606 c -2.61957,-2.61958 -2.66667,-4.44445 -2.66667,-103.33333 0,-98.88889 0.0471,-100.71376 2.66667,-103.33334 1.65079,-1.65079 4.44444,-2.666662 7.33333,-2.666662 2.88889,0 5.68254,1.015872 7.33334,2.666662 2.61984,2.61985 2.66666,4.44445 2.66666,103.9244 v 101.25772 l -2.96334,2.07561 c -4.16218,2.91531 -11.15109,2.62784 -14.36999,-0.59106 z m 37.86627,1.64625 c -4.38001,-2.92462 -4.53294,-6.48782 -4.53294,-105.6192 v -98.81493 l 3.27273,-3.27273 c 4.58805,-4.58805 11.5856,-4.478073 15.29717,0.24042 2.73967,3.48294 2.76344,4.36958 2.76344,103.10091 v 99.58777 l -3.08594,2.89909 c -3.08061,2.89408 -10.64241,3.92993 -13.71446,1.87867 z"
         id="path6" />
      <path
         style="fill:#767676;fill-opacity:1"
         d="M 126,841.87135 C 69.034255,831.78131 24.394466,793.62318 4.484694,737.99998 L 0.66666665,727.33332 0.32188734,424.86973 -0.02289197,122.40614 4.6731713,108.37216 C 25.172664,47.110315 75.438705,7.4627311 140.44687,1.2799938 150.57961,0.31629794 244.10748,0.00621468 433.33332,0.30895501 l 278,0.44476911 13.08325,3.00086588 c 58.59826,13.440502 99.99272,51.029728 117.44372,106.64757 l 3.47302,11.06883 v 300.95796 c 0,300.29959 -0.006,300.97978 -2.76138,310.93116 -1.51876,5.48527 -5.11891,15.00658 -8.00033,21.15848 -21.89177,46.73939 -63.78897,78.4721 -115.51836,87.49295 C 702.38643,844.91799 142.45325,844.78563 126,841.87135 Z M 715.06054,811.3436 c 51.09147,-8.90961 89.33897,-46.21674 100.50223,-98.03123 2.31687,-10.75382 2.43721,-25.07209 2.43721,-289.97905 0,-264.69018 -0.12228,-279.26851 -2.438,-290.66666 C 805.9306,85.260283 771.13328,47.856634 725.33332,35.679847 L 713.99998,32.666666 H 422.66666 c -279.08818,0 -291.72562,0.103564 -300.66666,2.46396 -12.63107,3.334547 -34.17874,13.752723 -44.286543,21.41229 -18.006823,13.645347 -34.022489,35.2869 -41.589117,56.198294 -8.677318,23.98094 -8.197799,4.59581 -7.798391,315.2592 0.349564,271.89415 0.452773,282.31014 2.880105,290.66624 14.642956,50.40842 50.568882,83.7403 99.906126,92.69237 7.62982,1.38441 66.25832,1.75787 291.04649,1.85396 243.95802,0.10429 283.01339,-0.14497 292.90187,-1.86938 z M 411.99999,745.00906 c -6.64345,-3.06288 -112.47491,-47.89432 -138.50385,-58.67184 -13.29759,-5.50599 -16.98782,-7.62721 -18.99501,-10.91874 -2.38078,-3.90415 -2.49117,-9.0775 -2.49117,-116.75183 0,-108.90265 0.0858,-112.80745 2.56969,-116.88095 1.41333,-2.31785 3.96108,-4.64595 5.66168,-5.17354 1.7006,-0.5276 24.392,-9.95268 50.42533,-20.94464 59.72448,-25.21723 100.55365,-42.2058 107.02625,-44.53243 6.30406,-2.26605 3.85708,-3.12955 70.30708,24.81015 28.23333,11.87104 62.37008,26.16785 75.85945,31.77068 20.55377,8.53705 24.92802,10.84269 27.00753,14.23552 2.37607,3.87667 2.46694,8.90093 2.14055,118.34518 -0.39634,132.8963 2.19537,116.39208 -19.71164,125.52524 -22.69308,9.46087 -79.53177,33.4021 -114.68154,48.30543 -18.52993,7.8566 -34.43096,13.82397 -36.66667,13.76034 -2.17122,-0.0618 -6.64768,-1.35715 -9.94768,-2.87857 z m -4.32414,-127.10431 -0.34253,-91.42856 -6,-2.52598 c -52.85337,-22.25104 -117.61951,-49.28355 -118.07653,-49.28355 -0.32457,0 -0.59013,40.9715 -0.59013,91.04778 v 91.04778 l 38.33333,16.25065 c 21.08334,8.93786 48.83333,20.71943 61.66667,26.18127 12.83333,5.46183 23.78747,9.97753 24.34252,10.03489 0.55505,0.0574 0.85505,-41.03857 0.66667,-91.32428 z m 95.65747,64.31384 58.66667,-24.59218 0.34253,-91.50161 0.34253,-91.50162 -4.34253,1.76655 c -2.38839,0.97161 -12.26498,5.03139 -21.94798,9.02174 l -17.60544,7.25518 -0.39456,37.11723 -0.39455,37.11723 -3.67193,3.15668 c -5.04046,4.33317 -11.63301,5.38016 -17.2108,2.73332 -8.05849,-3.824 -8.38349,-5.16246 -9.11727,-37.54777 l -0.66667,-29.42331 -24.31951,10.08998 -24.31951,10.08998 -0.0138,91.63366 -0.0138,91.63366 3,-1.22827 c 1.65,-0.67555 29.4,-12.29475 61.66666,-25.82045 z M 439.58248,493.23392 c 26.93089,-10.74421 26.50781,-8.85924 4.12188,-18.36449 -10.62514,-4.51153 -19.85528,-8.21974 -20.51141,-8.24049 -1.94668,-0.0615 -40.43177,15.30054 -40.48106,16.1588 -0.0317,0.552 33.09038,14.85884 39.5996,17.10477 0.17133,0.0591 7.94327,-2.93725 17.27099,-6.65859 z M 365.3958,458.91514 c 10.59897,-4.26334 19.03819,-8.31334 18.75382,-9 -0.28437,-0.68667 -8.90461,-4.63068 -19.1561,-8.76447 l -18.63906,-7.51599 -19.8439,8.11192 c -10.91415,4.46156 -19.84282,8.44375 -19.84149,8.84932 0.002,0.66911 37.01296,16.01061 38.72673,16.05279 0.40102,0.01 9.40102,-3.47024 20,-7.73357 z m 155.97761,-0.81041 17.95991,-7.23504 -8,-3.56808 c -4.4,-1.96245 -13.43427,-5.83093 -20.07616,-8.59663 l -12.07616,-5.02854 -19.92384,7.94857 c -10.95811,4.37172 -20.06548,8.08616 -20.23859,8.25431 -0.88651,0.86109 40.61523,16.62722 42.35484,16.09021 1.12205,-0.34637 10.12205,-3.88553 20,-7.8648 z m -81.58958,-30.91287 c 8.55222,-3.37781 17.04949,-6.93154 18.88283,-7.89719 3.17844,-1.67413 3.20942,-1.80193 0.66666,-2.75021 -1.46666,-0.54697 -10.16666,-4.20903 -19.33333,-8.13792 l -16.66667,-7.14343 -19,7.56181 c -10.45,4.159 -18.98937,7.92479 -18.97637,8.36844 0.0224,0.76617 35.4101,15.78476 37.76022,16.02552 0.61444,0.0629 8.11444,-2.64922 16.66666,-6.02702 z M 95.814376,309.45113 92.666664,306.90227 V 206 105.09772 l 3.147712,-2.54886 c 4.382144,-3.548445 10.273254,-3.249112 14.246224,0.72386 l 3.27273,3.27273 v 99.96383 99.96383 l -3.51314,2.76344 c -4.38876,3.4522 -9.903189,3.53668 -14.005814,0.21458 z M 132,309.33333 c -2.61947,-2.61947 -2.66667,-4.44445 -2.66667,-103.10092 V 105.79817 l 3.08594,-2.89909 c 3.9275,-3.689698 10.67996,-3.799851 14.24739,-0.23242 2.61958,2.61958 2.66667,4.44445 2.66667,103.33334 0,98.88888 -0.0471,100.71375 -2.66667,103.33333 -1.65079,1.65079 -4.44444,2.66666 -7.33333,2.66666 -2.88889,0 -5.68254,-1.01587 -7.33333,-2.66666 z m 36.60606,-0.60606 -3.27273,-3.27273 v -99.24623 c 0,-92.7531 0.15355,-99.43585 2.34696,-102.14459 2.5482,-3.14689 11.17775,-4.974068 16.8126,-3.55981 C 192.44408,102.49953 192,96.289046 192,205.48917 v 99.96537 l -3.27273,3.27273 c -2.61761,2.6176 -4.6315,3.27272 -10.06061,3.27272 -5.4291,0 -7.443,-0.65512 -10.0606,-3.27272 z m 43.97514,-0.0249 -3.29758,-3.29758 0.35819,-100.15391 0.35818,-100.1539 3.14772,-2.54851 c 4.01562,-3.251209 11.0019,-3.267806 14.99348,-0.0356 3.97372,3.21772 3.88094,-0.39438 2.9115,113.34939 -0.73666,86.4321 -0.90634,91.32469 -3.24831,93.66666 -3.64708,3.64708 -11.15733,3.23932 -15.22318,-0.82653 z m 42.69152,0.0249 -3.27273,-3.27273 V 206 106.54545 l 3.27273,-3.27273 c 4.14637,-4.146367 11.56169,-4.438309 15.39394,-0.60606 2.61957,2.61958 2.66667,4.44445 2.66667,103.33334 0,98.88888 -0.0471,100.71375 -2.66667,103.33333 -3.83225,3.83225 -11.24757,3.54031 -15.39394,-0.60606 z m 37.87498,0.72424 -3.14771,-2.54849 -0.38868,-97.11818 c -0.21378,-53.415 -0.0369,-99.06668 0.39312,-101.44819 1.09263,-6.05144 6.77197,-8.823621 16.43516,-8.02227 13.38384,1.10989 12.34679,-8.16458 11.92633,106.65849 l -0.36593,99.93028 -3.14771,2.54842 c -4.39749,3.56026 -17.30716,3.56022 -21.70458,-6e-5 z m 44,-3.8e-4 -3.14771,-2.54886 V 206.16542 c 0,-111.650908 -0.62253,-104.14143 8.75942,-105.66391 3.44679,-0.559333 5.47871,-0.0313 8.241,2.1415 l 3.66625,2.88387 v 100.33747 100.33747 l -3.08594,2.89909 c -3.83672,3.60441 -10.22289,3.75937 -14.43302,0.35022 z m 36.18562,-0.1178 c -2.61952,-2.61953 -2.66666,-4.44445 -2.66666,-103.23656 V 105.52688 l 3.51314,-2.76344 c 4.17549,-3.284437 9.43446,-3.55192 13.52352,-0.68784 l 2.96334,2.07561 V 206 307.84878 l -2.96334,2.07561 c -4.16219,2.91531 -11.15109,2.62784 -14.37,-0.59106 z m 37.33334,0 c -2.61948,-2.61948 -2.66667,-4.44445 -2.66667,-103.12668 0,-115.878456 -1.42293,-104.9834 13.83811,-105.95515 7.3931,-0.470755 8.79644,-0.15122 12.20235,2.77842 l 3.84852,3.31036 -9e-5,99.65979 -9e-5,99.65979 -3.68542,3.17007 c -5.02119,4.31905 -19.41325,4.62686 -23.53671,0.5034 z m 46.96334,0.59106 -2.96334,-2.07561 0.0204,-100.92439 c 0.0112,-55.50842 0.46123,-101.58457 1,-102.39145 3.36208,-5.035181 11.98097,-5.810752 16.0805,-1.44701 l 2.89909,3.08594 v 100.24739 c 0,98.46962 -0.0473,100.29469 -2.66667,102.91407 -3.21891,3.2189 -10.20781,3.50637 -14.36999,0.59106 z m 36.30938,-1.19712 -3.27273,-3.27273 V 206 106.54545 l 3.27273,-3.27273 c 4.04036,-4.04035 10.35417,-4.312497 14.06061,-0.60606 2.61957,2.61958 2.66666,4.44445 2.66666,103.33334 0,98.88888 -0.0471,100.71375 -2.66666,103.33333 -3.70644,3.70644 -10.02025,3.43429 -14.06061,-0.60606 z m 36.54165,0.72421 -3.14771,-2.54851 -0.35802,-99.93995 c -0.41301,-115.286754 -1.54106,-105.6559 12.49304,-106.66051 6.58251,-0.471208 8.46287,-0.0912 11.53165,2.33068 l 3.66666,2.89369 V 206 306.47311 l -3.51314,2.76344 c -4.73565,3.72507 -16.18995,3.84416 -20.67248,0.21493 z m 44.41804,-0.53742 -2.89908,-3.08594 V 205.6775 105.52688 l 3.51314,-2.76344 c 4.7551,-3.740367 10.49889,-3.539285 14.54746,0.50928 l 3.27273,3.27273 V 206 305.45454 l -3.27273,3.27273 c -4.33039,4.33039 -11.18942,4.4149 -15.16152,0.18679 z m 42.66667,0 -2.89909,-3.08594 V 205.6775 105.52688 l 3.51315,-2.76344 c 4.7378,-3.726759 11.24924,-3.586025 14.9211,0.32249 l 2.89908,3.08594 v 100.15062 100.15062 l -3.51314,2.76344 c -4.7378,3.72676 -11.24924,3.58602 -14.9211,-0.32249 z m 39.0403,-0.18679 -3.27272,-3.27273 v -99.85396 c 0,-99.82072 9.3e-4,-99.85479 2.80665,-102.39393 2.10172,-1.90204 4.81038,-2.53999 10.78447,-2.53999 14.23536,0 13.07554,-9.361661 13.07554,105.54165 v 99.24623 l -3.27272,3.27273 c -2.61761,2.6176 -4.6315,3.27272 -10.06061,3.27272 -5.42911,0 -7.443,-0.65512 -10.06061,-3.27272 z m 42.06061,0.60606 c -2.61955,-2.61955 -2.66667,-4.44445 -2.66667,-103.28139 V 105.43721 l 2.91809,-2.71861 c 3.79639,-3.536874 10.9047,-3.562486 14.41525,-0.0519 2.61957,2.61958 2.66666,4.44445 2.66666,103.33334 0,98.88888 -0.0471,100.71375 -2.66666,103.33333 -1.6508,1.65079 -4.44445,2.66666 -7.33334,2.66666 -2.88889,0 -5.68254,-1.01587 -7.33333,-2.66666 z m 36.09677,-0.84648 c -2.73946,-3.48267 -2.76344,-4.37394 -2.76344,-102.72727 v -99.21413 l 3.27273,-3.27273 c 4.32979,-4.32979 10.45808,-4.32979 14.78788,0 l 3.27273,3.27273 V 206 305.45454 l -3.27273,3.27273 c -4.58806,4.58805 -11.5856,4.47807 -15.29717,-0.24042 z"
         id="path5" />
      <path
         style="fill:#606060;fill-opacity:1"
         d="M 126.12535,841.85712 C 66.710824,831.12795 19.835206,789.48215 3.4219666,732.8435 L 0,721.035 V 422.25297 123.47094 L 3.3948077,112.34111 C 18.772822,61.924485 55.97374,23.941093 105.33333,8.2584357 130.3251,0.31798598 115.65851,0.66666665 424.66666,0.66666665 c 269.04138,0 284.63204,0.1274492 295.99999,2.41971535 14.3021,2.883917 32.61294,8.826383 42.31612,13.732957 36.81148,18.614341 64.46874,50.690948 77.61423,90.016191 l 4.73631,14.16887 v 301.66226 301.66226 l -4.74082,14.16886 c -13.66212,40.83186 -41.18301,72.0055 -79.61443,90.18136 -14.33557,6.77991 -31.03097,11.87054 -45.55719,13.89095 -7.07594,0.98417 -98.88103,1.39259 -294.51736,1.31024 -240.0643,-0.10105 -285.87505,-0.41548 -294.77816,-2.02321 z m 588.69998,-30.48084 c 50.03459,-8.76262 85.62142,-41.68543 99.50311,-92.05431 l 3.67154,-13.32199 V 425.33332 c 0,-223.29637 -0.35119,-282.57446 -1.71809,-289.99999 C 812.27398,113.56089 803.79552,94.975596 790.01218,77.748551 771.85018,55.048852 747.93312,40.414699 719.35697,34.516674 707.85158,32.142 695.06308,32.035032 422.66666,32.035032 149.94174,32.035032 137.4966,32.139451 126,34.524171 77.468577,44.590958 40.490187,82.825376 29.792024,134 c -1.661552,7.94802 -2.049476,48.83302 -2.613588,275.45777 -0.689831,277.13056 -0.44505,292.83872 4.85856,311.78585 13.152962,46.98891 50.516405,81.36305 97.963004,90.12537 7.42899,1.37197 66.90384,1.74821 291.492,1.84399 242.47026,0.10341 283.7305,-0.15494 293.33333,-1.8367 z M 415.33332,746.11359 c -2.2,-0.98011 -37,-15.65424 -77.33333,-32.60917 -40.33333,-16.95493 -75.17546,-31.76593 -77.42696,-32.91333 -9.06762,-4.62101 -8.57304,2.41285 -8.57304,-121.92444 0,-102.44916 0.19443,-112.58436 2.22576,-116.02312 2.7454,-4.6476 -1.98644,-2.39937 58.44091,-27.76687 90.79475,-38.1158 106.00354,-44.21 110.33112,-44.21 4.12869,0 15.47456,4.57243 108.33554,43.6597 23.46667,9.87765 45.86202,19.15515 49.76746,20.61667 13.24953,4.95834 12.22257,-5.43711 12.22257,123.72362 0,106.83629 -0.12628,112.87366 -2.44026,116.66667 -2.1074,3.45439 -8.24477,6.44005 -44.99501,21.8888 -23.40512,9.83885 -60.09692,25.28885 -81.53735,34.33334 -21.44042,9.04449 -40.34042,16.42104 -42,16.39233 -1.65957,-0.0287 -4.81741,-0.85409 -7.01741,-1.8342 z m -7.65747,-128.30187 -0.34253,-91.52159 -42.66666,-17.84606 c -59.84848,-25.03265 -80.95197,-33.77741 -81.51407,-33.77741 -0.26726,0 -0.48593,41.0116 -0.48593,91.13689 v 91.13689 l 35,14.83524 c 73.26755,31.05548 88.36353,37.38685 89.34252,37.47094 0.55505,0.0477 0.85505,-41.09802 0.66667,-91.4349 z m 96.32414,64.21743 c 31.16666,-13.01612 57.1614,-24.1222 57.76607,-24.68017 0.98728,-0.91102 1.38274,-181.31129 0.39961,-182.29442 -0.22458,-0.22458 -10.09806,3.64627 -21.94107,8.60188 l -21.53274,9.01021 -0.0176,35.33334 c -0.0162,32.63102 -0.21586,35.65849 -2.60992,39.58484 -4.83235,7.92524 -16.74323,8.6916 -23.61998,1.51974 l -3.77773,-3.93984 -0.66666,-29.75541 -0.66667,-29.7554 -24.33333,10.15562 -24.33333,10.15562 v 91.70197 91.70197 l 4.33333,-1.83713 c 2.38333,-1.01042 29.83333,-12.48669 61,-25.50282 z M 439.58248,493.23392 c 9.32771,-3.72134 18.48754,-7.57326 20.35516,-8.55983 l 3.39568,-1.79377 -3.33333,-1.31369 c -1.83333,-0.72253 -10.43655,-4.3706 -19.11826,-8.10683 -8.68171,-3.73623 -16.48171,-6.81562 -17.33333,-6.84308 -2.16281,-0.0697 -40.82412,15.21055 -40.85585,16.14766 -0.0192,0.56812 37.83378,17.0024 39.61894,17.20096 0.17133,0.0191 7.94327,-3.01008 17.27099,-6.73142 z m -71.1989,-35.31937 c 10.11098,-4.1755 18.21098,-7.75276 18,-7.94945 -0.21097,-0.19669 -9.25129,-3.99317 -20.08959,-8.43662 l -19.706,-8.079 -19.96067,8.11793 c -10.97836,4.46486 -19.96066,8.53116 -19.96066,9.03623 0,1.79399 36.65413,15.91149 40,15.40617 1.83333,-0.27688 11.60595,-3.91975 21.71692,-8.09526 z m 150.99461,1.15175 c 10.60865,-4.18019 19.28033,-7.93019 19.2704,-8.33333 -0.01,-0.40314 -8.94113,-4.45209 -19.8471,-8.99766 l -19.82904,-8.26468 -20.18714,8.11932 c -11.10293,4.46563 -20.01206,8.29441 -19.79808,8.50839 0.6169,0.6169 38.8967,16.35194 40.05763,16.46582 0.57467,0.0564 9.72467,-3.31766 20.33333,-7.49786 z m -78.49384,-32.21809 c 22.29277,-9.0149 22.01043,-8.82191 16.38413,-11.19894 -2.531,-1.06932 -11.28192,-4.7886 -19.44649,-8.26508 l -14.84466,-6.32086 -19.822,8.03946 c -13.13859,5.32879 -19.06912,8.33157 -17.58905,8.9058 1.22813,0.47648 9.92813,4.09151 19.33333,8.0334 9.40521,3.94189 17.74106,7.19503 18.52411,7.2292 0.78306,0.0342 8.64034,-2.85617 17.46063,-6.42298 z M 96.296673,309.92439 93.333331,307.84878 V 206 104.15121 l 2.963342,-2.07561 c 4.377227,-3.065928 9.988957,-2.577846 13.763927,1.19712 l 3.27273,3.27273 V 206 305.45454 l -3.27273,3.27273 c -3.77497,3.77497 -9.3867,4.26305 -13.763927,1.19712 z m 35.800097,-1.43754 c -2.73946,-3.48267 -2.76344,-4.37394 -2.76344,-102.72727 v -99.21413 l 3.27273,-3.27273 c 4.04035,-4.04035 10.35416,-4.312497 14.0606,-0.60606 2.61953,2.61953 2.66667,4.44445 2.66667,103.23656 v 100.56989 l -3.51315,2.76344 c -4.91642,3.86726 -10.32408,3.57185 -13.72341,-0.7497 z m 37.05094,0.96466 L 166,306.90302 165.61131,209.78484 c -0.21378,-53.415 -0.0369,-99.06668 0.39313,-101.44819 0.55638,-3.0815 1.98164,-4.95047 4.94297,-6.48183 5.12589,-2.650704 14.69947,-1.857677 18.44003,1.52748 2.55022,2.30791 2.61256,4.74698 2.61256,102.21828 v 99.85396 l -3.27273,3.27273 c -4.23456,4.23455 -14.76286,4.62399 -19.57956,0.72424 z m 44.165,0.13218 -3.31272,-2.68353 -0.16941,-99.35688 c -0.12276,-71.9938 0.2491,-100.19635 1.35025,-102.40503 3.11415,-6.246367 15.27223,-6.593653 18.45213,-0.52707 2.29987,4.38769 1.19907,202.4249 -1.13819,204.76127 -0.82787,0.82756 -3.83714,1.81743 -6.68728,2.19971 -3.93024,0.52716 -5.98231,0.0468 -8.49478,-1.98847 z m 42.50166,-0.13256 -3.14771,-2.54886 V 206.16542 c 0,-111.650908 -0.62253,-104.14143 8.75942,-105.66391 3.44679,-0.559333 5.47871,-0.0313 8.241,2.1415 l 3.66625,2.88387 v 100.51795 100.51795 l -2.91809,2.71861 c -3.69015,3.4379 -10.46756,3.51669 -14.60087,0.16974 z m 37.33333,-0.002 -3.14771,-2.55107 -0.10124,-97.78226 c -0.0559,-53.9966 0.43449,-99.71148 1.09515,-102.09059 0.96371,-3.47044 2.22007,-4.61502 6.4601,-5.88536 7.62542,-2.284633 17.28445,-0.20706 19.49726,4.19368 1.29834,2.58208 1.66194,23.61718 1.61331,93.33333 -0.0677,97.13778 -0.53373,108.55078 -4.55196,111.48898 -3.89426,2.84756 -17.02826,2.4027 -20.86491,-0.70671 z m 44.4823,0.47546 -2.96334,-2.07561 V 205.95863 104.06848 l 3.93379,-2.03424 c 5.55262,-2.871378 9.0192,-2.535792 12.79348,1.23848 l 3.27273,3.27273 V 206 305.45454 l -3.27273,3.27273 c -3.77497,3.77497 -9.3867,4.26305 -13.76393,1.19712 z m 35.70332,-0.59106 c -2.61928,-2.61929 -2.66666,-4.44445 -2.66666,-102.72727 V 106.54545 l 3.27272,-3.27273 c 4.04036,-4.04035 10.35417,-4.312497 14.06061,-0.60606 2.61985,2.61985 2.66667,4.44445 2.66667,103.9244 v 101.25772 l -2.96334,2.07561 c -4.16219,2.91531 -11.15109,2.62784 -14.37,-0.59106 z m 39.33334,1.0734 c -1.46667,-0.83169 -3.10748,-2.16345 -3.64625,-2.95945 -0.53877,-0.79601 -0.98877,-46.50429 -1,-101.57397 -0.0204,-100.05036 -0.0183,-100.12861 2.78091,-102.66184 4.01709,-3.635422 19.70095,-3.638607 23.7216,-0.005 l 2.8104,2.53998 v 100.36324 100.36324 l -3.51314,2.76344 c -3.97907,3.12994 -16.47824,3.82137 -21.15352,1.17018 z m 44.66666,-1.0734 c -2.61953,-2.61953 -2.66666,-4.44445 -2.66666,-103.23656 V 105.52688 l 3.51314,-2.76344 c 4.66034,-3.665828 9.21454,-3.490304 13.21413,0.50928 l 3.27273,3.27273 v 99.82819 99.82818 l -3.08594,2.89909 c -3.92751,3.6897 -10.67996,3.79985 -14.2474,0.23242 z m 36.73977,-0.47236 -3.45614,-3.45614 0.35819,-100.15391 0.35818,-100.1539 3.14771,-2.54851 c 4.08107,-3.304193 10.14965,-3.251153 13.51896,0.11815 2.61945,2.61946 2.66666,4.44445 2.66666,103.0785 0,78.36511 -0.36689,100.91358 -1.67104,102.6971 -0.91907,1.25691 -3.87499,2.64294 -6.56871,3.08007 -4.09277,0.66417 -5.46566,0.22679 -8.35381,-2.66136 z m 38.90878,2.28564 c -6.3051,-1.82993 -6.31522,-1.99805 -6.31522,-104.9936 0,-56.94382 0.51377,-97.99738 1.25065,-99.93552 2.42063,-6.366759 18.22019,-8.189648 24.18617,-2.7905 2.48513,2.249 2.56318,5.35402 2.56318,101.96528 0,114.38946 1.02923,105.37676 -12.11182,106.06086 -3.97183,0.20677 -8.27966,0.0688 -9.57296,-0.30652 z m 42.53126,-1.91006 -3.51314,-2.76344 V 206 105.52688 l 3.51314,-2.76344 c 4.7551,-3.740367 10.49889,-3.539285 14.54746,0.50928 l 3.27273,3.27273 V 206 305.45454 l -3.27273,3.27273 c -4.04857,4.04857 -9.79236,4.24965 -14.54746,0.50928 z m 42.42625,-0.50928 -3.27273,-3.27273 v -99.96383 -99.96383 l 3.51315,-2.76344 c 4.7551,-3.740367 10.49889,-3.539285 14.54746,0.50928 l 3.27272,3.27273 V 206 305.45454 l -3.27272,3.27273 c -2.06299,2.06298 -4.79611,3.27272 -7.39394,3.27272 -2.59783,0 -5.33096,-1.20974 -7.39394,-3.27272 z m 38.82377,0.1571 -3.42983,-3.42983 v -99.24623 c 0,-114.884322 -1.17938,-105.40495 13.12484,-105.4922 14.1237,-0.0861 12.87516,-10.295835 12.87516,105.28389 0,114.41583 1.095,104.63613 -11.83581,105.70845 -6.49459,0.53859 -7.68483,0.22545 -10.73436,-2.82408 z m 41.9035,0.44896 c -2.61953,-2.61953 -2.66667,-4.44445 -2.66667,-103.23656 V 105.52688 l 3.51315,-2.76344 c 1.93223,-1.51989 4.67167,-2.763442 6.08765,-2.763442 2.98236,0 7.95771,2.404682 9.37879,4.532942 0.53877,0.80688 0.98877,46.61706 1,101.80039 0.0201,98.56952 -0.0265,100.38021 -2.64625,103 -1.6508,1.65079 -4.44445,2.66666 -7.33334,2.66666 -2.88889,0 -5.68254,-1.01587 -7.33333,-2.66666 z m 37.14771,0.11815 -3.14771,-2.54851 -0.35819,-100.1539 -0.35818,-100.15391 3.29758,-3.29758 c 4.35493,-4.354934 10.47238,-4.365198 14.81273,-0.0249 l 3.27273,3.27273 V 206 305.45454 l -3.27273,3.27273 c -3.97285,3.97284 -9.8639,4.27232 -14.24623,0.72421 z"
         id="path4" />
      <path
         style="fill:#494949;fill-opacity:1"
         d="M 130.21986,842.53783 C 69.773328,833.70434 19.920742,790.45805 3.3338658,732.46633 L -0.04109598,720.66665 0.31278533,419.99999 0.66666665,119.33333 4.3446488,108.93822 C 13.421827,83.283307 25.567231,63.42909 42.508394,46.55155 60.015338,29.110352 78.000257,17.870466 101.87511,9.4496264 125.62558,1.0726538 110.70527,1.490833 409.99999,0.81365188 564.98778,0.46297812 691.13291,0.71396134 701.34742,1.393328 c 31.11167,2.0692364 54.4397,9.733217 78.47316,25.780868 29.33696,19.588909 49.8827,46.899117 61.45553,81.689144 l 4.0572,12.19667 v 301.40116 301.40115 l -3.47673,11.06883 c -15.16261,48.27303 -51.78983,85.5792 -99.24808,101.08783 -25.67791,8.39115 -9.03365,7.98554 -320.60851,7.81305 -156.2,-0.0865 -287.50106,-0.66886 -291.78013,-1.2942 z m 595.74029,-32.96641 c 28.43615,-8.28247 52.85613,-24.89046 68.18576,-46.37301 7.04985,-9.87947 16.68149,-30.10786 19.61642,-41.19843 4.92837,-18.62338 5.02188,-24.91514 4.55804,-306.66666 -0.49358,-299.80765 0.0109,-279.33418 -7.4101,-300.69662 -7.58244,-21.827053 -23.4792,-43.89058 -41.4628,-57.547293 -10.60337,-8.052178 -32.2404,-18.707595 -44.11415,-21.724548 -5.10246,-1.296461 -18.5368,-2.670187 -32.66667,-3.340321 -13.2,-0.626034 -143.4,-0.92036 -289.33333,-0.654058 C 175.0721,31.787016 136.60281,32.132093 128,33.840273 101.09348,39.182851 80.098833,51.213603 60.469124,72.538103 45.819804,88.452217 36.056042,107.14491 30.363411,130.1754 L 27.44063,142 26.985309,411.99999 c -0.310239,183.96863 -0.0034,274.75038 0.963077,284.90855 2.370312,24.91399 10.099194,46.4207 23.391955,65.09144 6.492996,9.11993 21.130846,23.55267 29.99299,29.57273 13.882962,9.4307 34.153539,17.655 50.212999,20.37272 3.54952,0.60068 136.35366,1.00868 295.12033,0.90668 l 288.66666,-0.18546 z M 383.99999,732.74233 C 324.95107,707.51441 262.5673,681.33332 261.50365,681.33332 c -0.55261,0 -2.767,-1.8394 -4.92087,-4.08755 l -3.91612,-4.08755 V 558.60941 444.0606 l 3.33333,-3.25912 c 1.96954,-1.92568 24.33577,-12.10485 54.66667,-24.87953 89.09238,-37.52368 108.2768,-45.25529 112.29177,-45.25529 2.15007,0 27.714,9.97553 56.80872,22.16785 29.09473,12.19232 64.2995,26.90561 78.23284,32.6962 13.93333,5.79058 26.65618,11.2019 28.273,12.02516 7.21771,3.67512 7.0605,0.97309 7.05826,121.31229 -0.002,103.17563 -0.16898,111.45764 -2.33334,115.68282 -2.19336,4.2818 -4.93393,5.64505 -46.33126,23.04676 -24.2,10.17267 -60.93286,25.67472 -81.62858,34.449 -20.69573,8.77428 -38.99573,15.91681 -40.66667,15.87228 -1.67094,-0.0445 -18.93808,-6.87404 -38.37141,-15.17669 z m 24,-114.81732 v -91.4083 l -5.66667,-2.44675 c -3.11666,-1.34571 -15.87779,-6.66618 -28.35807,-11.82328 -12.48027,-5.15709 -36.78027,-15.3398 -54,-22.62824 -17.21972,-7.28843 -32.65859,-13.67465 -34.30859,-14.19159 l -3,-0.9399 v 91.22359 91.22359 l 31.66667,13.50898 c 54.99244,23.45974 91.63202,38.82365 92.66666,38.8575 0.55,0.018 1,-41.10103 1,-91.3756 z m 74,73.36142 c 20.53333,-8.62107 47.23333,-19.7506 59.33333,-24.73227 l 22,-9.05758 -0.17229,-90.80948 c -0.0948,-49.94521 -0.45771,-91.09489 -0.80656,-91.44374 -0.34884,-0.34884 -10.32131,3.38471 -22.16104,8.29678 l -21.52678,8.93104 v 34.23211 c 0,20.97134 -0.55515,35.82461 -1.43309,38.34309 -1.92271,5.51549 -6.54873,8.28694 -13.83229,8.28694 -4.69178,0 -6.93555,-0.8128 -10.13471,-3.67125 l -4.10884,-3.67124 0.12118,-29.56277 c 0.0666,-16.25952 -0.35804,-29.85894 -0.94375,-30.22093 -0.58571,-0.36199 -12.00073,3.9171 -25.36671,9.50909 l -24.30178,10.16725 v 91.69192 91.69192 l 3,-1.15309 c 1.65,-0.63421 19.8,-8.20671 40.33333,-16.82779 z M 442.41053,492.33332 c 10.34148,-4.21667 18.87072,-8.26666 18.95386,-9 0.1745,-1.53909 -34.03173,-16.45597 -38.03107,-16.58483 -2.09613,-0.0675 -38.23758,13.74337 -40.55555,15.4977 -0.30556,0.23126 -0.22647,0.74955 0.17575,1.15177 0.80773,0.80773 38.56517,16.50097 39.8504,16.56314 0.44216,0.0214 9.26513,-3.41111 19.60661,-7.62778 z m -78.82805,-32.43273 c 26.82295,-10.70115 26.50413,-8.8044 3.0911,-18.38963 l -20.23886,-8.28573 -20.88403,8.64801 -20.88403,8.64801 5.33333,2.2737 c 16.39114,6.98785 33.54435,13.76167 34.97817,13.81292 0.90466,0.0323 9.2766,-2.98595 18.60432,-6.70728 z m 156.06607,-0.80646 c 10.45996,-4.16489 19.01266,-7.91489 19.006,-8.33333 -0.007,-0.41845 -8.94187,-4.51212 -19.85603,-9.09704 l -19.84394,-8.33624 -19.68273,7.98612 c -10.8255,4.39236 -19.90323,8.2066 -20.17272,8.47609 -0.54605,0.54606 38.13902,16.72312 40.21609,16.81729 0.72338,0.0328 9.87338,-3.348 20.33333,-7.51289 z m -75.94473,-33.2719 c 10.47044,-4.13913 18.87044,-7.68741 18.66666,-7.88506 -0.75473,-0.73207 -38.25784,-16.60385 -39.2329,-16.60385 -2.61086,0 -38.89046,15.43918 -38.07092,16.20149 1.2163,1.13136 36.52471,15.66128 38.26666,15.74728 0.73334,0.0362 9.90006,-3.32073 20.3705,-7.45986 z M 96.296673,309.92439 l -2.963342,-2.07561 0.02042,-100.92439 c 0.01123,-55.50842 0.461229,-101.58457 1,-102.39145 1.464195,-2.19284 6.430049,-4.532942 9.619199,-4.532942 1.54821,0 4.28765,1.472722 6.08765,3.272722 l 3.27273,3.27273 V 206 305.45454 l -3.27273,3.27273 c -3.77497,3.77497 -9.3867,4.26305 -13.763924,1.19712 z m 36.309387,-1.19712 -3.27273,-3.27273 V 206 106.54545 l 3.27273,-3.27273 c 3.99959,-3.999584 8.55378,-4.175108 13.21412,-0.50928 l 3.51315,2.76344 v 99.96383 99.96383 l -3.27273,3.27273 c -1.8,1.8 -4.82727,3.27272 -6.72727,3.27272 -1.9,0 -4.92727,-1.47272 -6.72727,-3.27272 z m 38.0606,1.62589 c -2.78985,-1.47265 -3.47169,-3.04191 -4.18192,-9.62476 -1.07945,-10.005 -0.30947,-191.74635 0.82755,-195.32878 1.70571,-5.37422 16.78668,-6.505318 22.35437,-1.67662 2.18336,1.89356 2.33334,8.42846 2.33334,101.66927 0,94.24456 -0.13107,99.80749 -2.4181,102.63185 -2.9795,3.67952 -13.82656,5.01513 -18.91524,2.32904 z m 42.96334,-0.42877 -2.96334,-2.07561 0.0204,-100.92439 c 0.0112,-55.50842 0.46123,-101.58457 1,-102.39145 3.417,-5.117436 14.99475,-5.487303 17.63004,-0.56322 0.87608,1.63697 1.34954,37.60131 1.34954,102.51251 v 99.99088 l -3.51314,2.76344 c -4.17549,3.28444 -9.43447,3.55192 -13.52352,0.68784 z m 42.18437,-0.4752 -3.14771,-2.55079 0.039,-98.4492 c 0.0215,-54.14706 0.47729,-100.07686 1.01295,-102.06622 0.73752,-2.73912 2.27667,-4.00735 6.3414,-5.22517 4.79022,-1.435183 5.75679,-1.317509 8.98706,1.09413 l 3.61956,2.70226 0.34169,100.75289 0.34169,100.75288 -3.5215,2.77001 c -4.39735,3.45895 -9.90989,3.54518 -14.01417,0.21921 z m 40.18562,1.69668 c -5.38072,-2.11454 -5.33333,-1.17981 -5.33333,-105.19406 0,-115.753992 -1.51943,-104.61848 14.27506,-104.61848 10.32056,0 12.13958,1.07202 12.5975,7.42422 0.155,2.15001 0.17208,47.44444 0.038,100.65427 -0.20006,79.37008 -0.57087,97.19238 -2.06468,99.23529 -1.34777,1.84318 -3.85923,2.59336 -9.66667,2.88743 -4.31521,0.21852 -8.74584,0.0436 -9.84584,-0.38867 z m 41.63001,-1.22148 -2.96334,-2.07561 0.0204,-100.92439 c 0.0112,-55.50842 0.47344,-101.63686 1.02713,-102.50764 1.58322,-2.48991 8.14746,-4.502273 11.74275,-3.59991 7.47552,1.87623 7.2097,-2.015079 7.2097,105.54044 v 99.09726 l -3.27273,3.27273 c -3.77497,3.77497 -9.3867,4.26305 -13.76393,1.19712 z m 36.30938,-1.19712 -3.27272,-3.27273 v -99.09726 c 0,-108.725056 -0.36529,-103.85329 7.92345,-105.6738 3.89131,-0.854678 9.13391,0.97066 11.05613,3.84946 0.53877,0.80688 0.98877,46.61706 1,101.80039 0.0201,98.56952 -0.0265,100.38021 -2.64625,103 -3.70644,3.70644 -10.02025,3.43429 -14.06061,-0.60606 z m 37.72728,0.63828 -3.66667,-2.89244 V 206.10987 c 0,-116.280913 -1.54845,-105.09793 14.57285,-105.24555 16.3183,-0.14942 14.76048,-11.181283 14.76048,104.52795 0,115.35756 1.26339,105.39837 -13.4885,106.32885 -7.21292,0.45495 -9.07091,0.0956 -12.17816,-2.35557 z m 45.66666,-0.0322 c -2.61947,-2.61948 -2.66666,-4.44445 -2.66666,-103.12668 0,-95.366 0.12275,-100.57111 2.42082,-102.65083 1.33145,-1.20495 4.29168,-2.56499 6.57828,-3.02231 3.34179,-0.668357 4.82879,-0.16017 7.57918,2.59022 l 3.42172,3.42172 V 206 305.45454 l -3.27273,3.27273 c -4.04036,4.04035 -10.35417,4.3125 -14.06061,0.60606 z m 37.32298,0.25972 -2.97245,-2.40694 -0.60196,-95.92639 c -0.33108,-52.75951 -0.0959,-98.61125 0.52256,-101.89275 1.30396,-6.9184 5.67997,-10.337626 11.39469,-8.90332 8.13971,2.04294 7.66945,-4.432389 7.6471,105.29825 -0.0112,55.13095 -0.46123,100.89827 -1,101.70515 -1.427,2.13713 -6.40097,4.53294 -9.41088,4.53294 -1.43364,0 -3.94422,-1.08312 -5.57906,-2.40694 z m 37.71691,1.11941 c -1.62806,-0.69503 -3.25645,-2.63967 -3.61865,-4.32141 -0.3622,-1.68175 -0.96499,-46.71277 -1.33953,-100.06894 -0.49811,-70.95929 -0.27363,-97.90527 0.83591,-100.34044 2.79955,-6.144343 18.17368,-7.631086 24.08238,-2.32887 2.18273,1.95869 2.33333,8.5254 2.33333,101.73947 0,114.35583 1.03157,105.31634 -12.11182,106.1344 -3.97183,0.24721 -8.55356,-0.11919 -10.18162,-0.81421 z m 43.05806,-1.82663 -3.43128,-3.43129 V 206 106.54545 l 3.43128,-3.43129 c 2.84318,-2.84317 4.25567,-3.297506 8.241,-2.65078 9.65486,1.56677 8.99438,-6.183068 8.99438,105.53662 0,111.71968 0.66048,103.96984 -8.99438,105.53661 -3.98533,0.64673 -5.39782,0.19239 -8.241,-2.65078 z m 42.66667,0 -3.43129,-3.43129 v -99.24623 c 0,-111.137853 -0.63621,-104.10725 9.56871,-105.74076 4.08415,-0.653751 5.47456,-0.21217 8.33334,2.64661 l 3.43128,3.43129 v 99.24623 c 0,111.13785 0.63622,104.10725 -9.56871,105.74076 -4.08414,0.65375 -5.47455,0.21217 -8.33333,-2.64661 z m 40.88265,1.80459 c -1.66067,-0.70703 -3.61067,-2.84068 -4.33333,-4.74144 -0.81967,-2.15587 -1.31394,-40.23324 -1.31394,-101.22141 0,-113.218636 -1.1914,-103.83868 13.18905,-103.83868 14.06199,0 12.81095,-10.264577 12.81095,105.11111 0,113.68668 0.93407,104.6456 -10.90045,105.50745 -3.53809,0.25766 -7.79161,-0.11 -9.45228,-0.81703 z m 40.29212,-1.96315 -3.27273,-3.27273 V 205.49073 105.5269 l 3.51315,-2.76344 c 1.93223,-1.51989 4.85131,-2.76344 6.48685,-2.76344 1.63554,0 4.55463,1.24355 6.48686,2.76344 l 3.51314,2.76344 -0.0204,100.23656 c -0.0112,55.1301 -0.46123,100.89673 -1,101.70361 -1.4642,2.19284 -6.43006,4.53294 -9.6192,4.53294 -1.54821,0 -4.28766,-1.47272 -6.08766,-3.27272 z m 36.54165,0.7233 -3.14771,-2.54942 V 206.16454 c 0,-111.683998 -0.62756,-104.13973 8.78981,-105.66796 3.41699,-0.554499 5.4572,-0.0573 7.90766,1.92692 l 3.30253,2.67422 V 206 306.90227 l -3.14771,2.54886 c -4.02019,3.25535 -9.68487,3.25512 -13.70458,-5.6e-4 z"
         id="path3" />
      <path
         style="fill:#333333;fill-opacity:1"
         d="M 128,841.96443 C 69.164901,832.73806 19.846685,789.52176 3.4050253,732.78503 L 0,721.035 V 422.93588 C 0,125.35871 0.00484502,124.8191 2.7671013,114.75171 6.769149,100.16575 19.60576,74.380671 29.151008,61.753996 49.473712,34.870656 79.136809,15.304297 114.27471,5.6047357 L 127.33333,2 417.33332,1.6082091 c 266.35194,-0.3598422 291.0329,-0.2097335 302.66666,1.8408071 33.51634,5.9075134 60.94431,20.3112358 84.19889,44.2168078 17.0665,17.544272 28.22054,35.70404 36.75872,59.846486 L 844.66665,118 l 0.35385,301.99999 0.35386,301.99999 -3.33187,11.64952 c -6.89618,24.11181 -21.80422,48.65382 -40.48113,66.64112 -24.21707,23.3229 -53.52295,37.49017 -87.56138,42.32957 -5.97537,0.84955 -111.03146,1.29001 -291.99999,1.22424 -228.56248,-0.0831 -284.83593,-0.44291 -293.99999,-1.88 z m 600.38441,-32.97342 c 23.18983,-7.2742 41.15072,-18.32957 56.40935,-34.72136 15.29637,-16.43232 25.28236,-35.58966 30.72128,-58.93633 2.38311,-10.22954 2.48494,-22.27792 2.48494,-294 V 138 l -3.59601,-13.02422 C 801.4346,78.002638 765.73642,44.002286 718.66665,33.791789 707.85179,31.445802 694.31041,31.333333 422.66666,31.333333 c -270.5042,0 -285.23051,0.121022 -296,2.432554 -22.23412,4.77227 -42.347832,15.474954 -59.037765,31.414518 -19.954821,19.057667 -31.450147,39.482275 -37.982438,67.486255 -1.967607,8.43515 -2.223098,35.44505 -2.65488,280.66666 -0.493614,280.33813 -0.340881,289.96112 4.892641,308.2618 11.28041,39.44553 39.367103,70.36061 76.192422,83.86515 22.10925,8.10788 3.00342,7.66261 318.59002,7.42486 l 289.99999,-0.21848 z M 415.33332,745.93714 c -2.2,-1.01492 -38.47777,-16.41846 -80.61727,-34.23009 -70.1349,-29.6448 -76.87528,-32.76763 -79.66667,-36.90977 l -3.04939,-4.52498 V 558.66665 447.06101 l 3,-4.40364 c 2.61301,-3.83559 7.47193,-6.28451 37.66667,-18.98416 100.13849,-42.11741 126.86268,-53.00655 130.08896,-53.00655 3.15653,0 48.33647,18.39878 128.99237,52.52999 14.89474,6.30302 28.52235,11.8217 30.28357,12.26374 4.88084,1.22501 9.52913,6.65978 10.44739,12.21505 0.45376,2.74517 0.83162,53.80054 0.83969,113.45637 0.0162,119.94921 0.34995,115.22212 -8.42168,119.29115 -2.32667,1.07931 -26.73031,11.38985 -54.23031,22.91231 -27.5,11.52246 -62.50463,26.28575 -77.78807,32.80732 -15.28345,6.52157 -29.08345,11.80845 -30.66667,11.74863 -1.58322,-0.0598 -4.67859,-0.93916 -6.87859,-1.95408 z m -7.36458,-128.27049 -0.0312,-91.66666 -20.96875,-8.54672 c -11.53281,-4.7007 -39.17775,-16.2507 -61.4332,-25.66667 -22.25545,-9.41597 -41.00545,-17.11994 -41.66667,-17.11994 -0.70234,0 -1.20221,37.92472 -1.20221,91.21144 v 91.21144 l 42.33333,18.01246 c 23.28333,9.90685 50.73333,21.60599 61,25.99808 10.26667,4.3921 19.41667,8.04134 20.33333,8.10943 1.31866,0.098 1.66014,-19.01698 1.63542,-91.54286 z m 93.40425,65.72183 61.96033,-25.94485 0.34273,-90.31242 c 0.1885,-49.67183 -0.17524,-90.8304 -0.80833,-91.46349 -0.64586,-0.64586 -10.5984,2.75572 -22.67606,7.75023 l -21.52501,8.90128 v 34.63887 c 0,37.71023 -0.6744,41.76527 -7.46032,44.85714 -6.31977,2.87948 -13.69266,1.90356 -17.97557,-2.37936 l -3.89744,-3.89743 v -30.10257 c 0,-16.55641 -0.45,-30.09146 -1,-30.07788 -0.55,0.0136 -12.06858,4.66357 -25.59684,10.33333 l -24.59685,10.30866 -0.57185,91.66666 c -0.33889,54.32293 -0.0796,91.66667 0.63651,91.66667 0.6646,0 29.09052,-11.67518 63.1687,-25.94484 z m -58.03967,-191.1762 c 10.26667,-4.17042 18.59154,-8.17426 18.49971,-8.89743 -0.0918,-0.72318 -8.87683,-5.0046 -19.52223,-9.51427 l -19.35528,-8.19941 -19.8111,7.99536 c -10.8961,4.39745 -20.2312,8.38729 -20.74466,8.86631 -1.023,0.95438 37.03218,17.33575 40.2669,17.33344 1.1,-7.9e-4 10.4,-3.41359 20.66666,-7.584 z m -79.24293,-32.31094 c 9.11695,-3.72093 18.07627,-7.36312 19.9096,-8.09376 4.19891,-1.6734 4.4038,-1.55445 -19.26817,-11.18656 l -18.27018,-7.43413 -20.56416,8.35858 c -11.31028,4.59722 -20.55996,8.68016 -20.55482,9.07322 0.0126,0.96579 37.44264,15.88508 40.08107,15.97596 1.14972,0.0396 9.54972,-2.97239 18.66666,-6.69331 z m 156.71198,-1.08516 19.86428,-7.85048 -7.33333,-3.22752 c -4.03333,-1.77513 -13.36266,-5.78664 -20.73183,-8.91446 l -13.39849,-5.68695 -17.26817,6.90706 c -9.4975,3.79888 -18.70139,7.45989 -20.45309,8.13558 -1.75171,0.67569 -2.82534,1.58811 -2.38585,2.0276 1.12659,1.12659 38.58832,16.35578 40.37314,16.41275 0.80798,0.0258 10.40798,-3.48582 21.33334,-7.80358 z m -78.76756,-32.11161 c 9.20322,-3.64581 17.76034,-7.20546 19.01582,-7.91033 2.09346,-1.17534 2.06162,-1.36008 -0.38397,-2.22848 -1.46667,-0.52079 -10.2806,-4.16114 -19.58651,-8.08967 -9.30592,-3.92852 -17.39777,-7.14277 -17.9819,-7.14277 -2.98633,0 -38.98668,15.31158 -38.09555,16.20271 1.57084,1.57084 35.31798,15.47286 37.98147,15.64635 1.27464,0.083 9.84743,-2.832 19.05064,-6.47781 z M 96.150097,309.48342 93.333331,306.66666 V 206.20665 c 0,-99.57927 0.02396,-100.4817 2.732984,-102.93334 3.468659,-3.13909 11.219715,-3.22537 14.286065,-0.15903 2.15591,2.15592 2.31428,9.19651 2.31428,102.88572 0,111.66478 0.65194,103.97122 -8.94224,105.52814 -3.731738,0.60558 -5.364906,0.1647 -7.574323,-2.04472 z M 133.14771,309.45113 130,306.90227 V 206.16542 c 0,-110.662506 -0.51784,-103.86185 8.0389,-105.5732 2.93646,-0.58729 4.97463,-0.0365 7.64881,2.06701 l 3.64562,2.86765 v 99.96383 99.96383 l -3.27273,3.27273 c -3.92579,3.92579 -8.63282,4.18965 -12.91289,0.72386 z M 172,311.15037 c -5.38113,-2.12681 -5.33334,-1.18416 -5.33334,-105.19856 0,-114.990437 -1.27875,-104.61848 12.89834,-104.61848 13.67428,0 12.53783,-9.848141 12.12664,105.08539 -0.31718,88.65635 -0.59714,100.39234 -2.43881,102.23362 -2.17703,2.17659 -13.806,3.86035 -17.25283,2.49803 z m 43.99999,-0.0757 c -5.37442,-1.92077 -5.33333,-1.11076 -5.33333,-105.12287 0,-95.11979 0.12286,-100.31636 2.42082,-102.39599 4.15079,-3.756413 9.83305,-4.122051 13.93356,-0.89659 l 3.64562,2.86765 V 206 306.47311 l -3.51314,2.76344 c -3.41978,2.69 -7.08146,3.29345 -11.15353,1.83813 z m 42.66667,0 c -5.37443,-1.92077 -5.33333,-1.11076 -5.33333,-105.12287 0,-97.40959 0.072,-100.27036 2.58147,-102.54138 3.49769,-3.16536 11.26172,-3.23563 14.69014,-0.13295 2.70269,2.4459 2.72839,3.40958 2.72839,102.3231 v 99.85396 l -3.27273,3.27273 c -3.11484,3.11483 -7.00444,3.91618 -11.39394,2.34741 z m 37.37097,-0.48647 c -1.81263,-0.76325 -3.75344,-2.10783 -4.31291,-2.98797 -0.55948,-0.88014 -1.02641,-46.65725 -1.03764,-101.72693 -0.0235,-115.353016 -1.43603,-104.53998 13.656,-104.53998 6.22201,0 9.41354,0.61377 10.89501,2.09524 1.86765,1.86765 2.09524,12.99709 2.09524,102.46001 0,98.50113 -0.0493,100.40936 -2.65316,102.76585 -3.13117,2.83367 -13.8619,3.94676 -18.64254,1.93378 z m 41.2957,-1.25488 c -2.61948,-2.61948 -2.66667,-4.44445 -2.66667,-103.12668 0,-96.96326 0.0881,-100.53973 2.53039,-102.74999 3.93292,-3.559244 13.58769,-2.43682 15.70203,1.82545 1.24524,2.51029 1.56612,26.60291 1.36451,102.4508 l -0.2636,99.16869 -3.14771,2.5492 c -4.08075,3.30482 -10.14939,3.25209 -13.51895,-0.11747 z m 37.30252,0.24316 -3.30253,-2.67422 V 206.16542 c 0,-110.662506 -0.51783,-103.86185 8.0389,-105.5732 2.93646,-0.58729 4.97463,-0.0365 7.64881,2.06701 l 3.64563,2.86765 v 100.31505 c 0,78.28756 -0.36693,100.81686 -1.67104,102.60033 -2.69232,3.68197 -10.45613,4.2952 -14.35977,1.13423 z m 40.03081,1.55838 c -1.1,-0.4489 -3.05,-1.73088 -4.33334,-2.84884 -2.18333,-1.902 -2.33333,-8.44797 -2.33333,-101.82602 0,-116.22135 -1.59641,-105.12668 15.12668,-105.12668 7.79432,0 10.24378,0.49771 12,2.43832 2.01178,2.22299 2.20665,11.21764 2.20665,101.85229 0,114.41334 1.14865,104.83982 -12.69205,105.78342 -4.38604,0.29903 -8.87461,0.1764 -9.97461,-0.27249 z m 45.33333,-0.0602 c -5.37321,-1.92033 -5.33333,-1.13885 -5.33333,-104.51515 0,-93.59969 0.14327,-99.77438 2.37921,-102.53564 3.43297,-4.23954 11.75754,-4.302599 15.14866,-0.11475 2.43031,3.0013 2.50856,6.72869 2.16348,103.05388 l -0.35802,99.93995 -3.14771,2.54851 c -3.0786,2.49255 -6.84396,3.05575 -10.85229,1.6232 z m 36,-0.80029 -3.33334,-1.68629 -0.34159,-101.36124 c -0.26862,-79.70578 0.0162,-101.84156 1.33333,-103.60943 2.8149,-3.778301 9.19577,-4.235858 13.36264,-0.9582 l 3.64562,2.86765 V 206 306.47311 l -3.51314,2.76344 c -4.04092,3.17859 -6.47427,3.40502 -11.15352,1.03784 z m 37.37097,0.31801 c -1.81263,-0.76555 -3.75344,-2.11202 -4.31292,-2.99216 -0.55947,-0.88014 -1.02641,-46.65725 -1.03764,-101.72693 -0.0235,-115.363716 -1.43945,-104.53998 13.67564,-104.53998 7.60223,0 9.10586,0.40897 10.89501,2.96334 1.83329,2.61739 2.0756,14.50803 2.0756,101.85229 0,112.64022 0.92348,104.06716 -11.33333,105.21242 -3.66667,0.34261 -8.14973,-0.003 -9.96236,-0.76898 z m 44.38286,0.065 c -1.60207,-0.64548 -3.55207,-2.36801 -4.33334,-3.82783 -0.96837,-1.80942 -1.42049,-34.03918 -1.42049,-101.26082 0,-94.76658 0.0983,-98.72801 2.52432,-101.72402 1.92153,-2.37299 3.86284,-3.11741 8.12964,-3.11741 8.97663,0 9.34132,1.18732 9.37656,30.52757 0.0168,13.9765 0.39079,56.72267 0.83111,94.99148 0.44032,38.26881 0.38923,72.32272 -0.11353,75.67535 -0.73653,4.91154 -1.66215,6.48251 -4.76489,8.087 -4.32078,2.23436 -6.0255,2.34247 -10.22938,0.64868 z m 42.56011,0.011 c -1.66067,-0.69491 -3.61067,-2.81865 -4.33334,-4.71941 -0.81966,-2.15587 -1.31394,-40.23324 -1.31394,-101.22141 0,-93.94126 0.0987,-97.88742 2.52433,-100.88289 1.92317,-2.37502 3.86222,-3.11741 8.14234,-3.11741 4.28012,0 6.21917,0.74239 8.14234,3.11741 2.42624,2.99628 2.52432,6.96555 2.52432,102.15532 0,92.36231 -0.15727,99.22733 -2.33333,101.84826 -2.72716,3.28471 -9.05084,4.62029 -13.35272,2.82013 z m 39.4674,-0.17988 c -1.95359,-0.71552 -4.05013,-2.31815 -4.65898,-3.5614 -0.60886,-1.24325 -1.28892,-46.78199 -1.51127,-101.1972 -0.40121,-98.19243 -0.38371,-98.95729 2.32566,-101.66667 3.39768,-3.39768 17.33583,-3.93352 20.48193,-0.78741 1.55104,1.55103 2.13149,9.00752 2.88031,37 1.16037,43.37788 0.36581,163.58191 -1.10146,166.63099 -2.07663,4.31538 -11.44067,6.13655 -18.41619,3.58169 z m 39.49138,-1.76124 -3.27273,-3.27273 V 206.2083 c 0,-94.9817 0.10721,-99.37861 2.49488,-102.32727 3.46672,-4.281213 11.54353,-4.281213 15.01024,0 2.38794,2.94897 2.49488,7.35726 2.49488,102.83656 v 99.75551 l -3.51314,2.76344 c -4.66034,3.66583 -9.21454,3.4903 -13.21413,-0.50928 z m 37.06061,1.27887 -3,-2.15736 0.0204,-100.92439 c 0.0112,-55.50842 0.46123,-101.58457 1,-102.39145 3.04259,-4.556706 12.8263,-5.400729 16.15207,-1.39341 0.88951,1.07178 1.43174,36.44635 1.57448,102.71765 0.18549,86.11421 -0.0648,101.36542 -1.69029,102.9909 -3.02044,3.02044 -10.59867,3.64478 -14.05667,1.15806 z"
         id="path2" />
    </g>
  </g>
</svg>
